<svg width="349" height="363" viewBox="0 0 349 363" fill="none" xmlns="http://www.w3.org/2000/svg">
<circle cx="174.035" cy="182.41" r="50.6867" stroke="black" stroke-dasharray="10 10"/>
<circle opacity="0.5" cx="174.034" cy="182.411" r="101.873" stroke="black" stroke-dasharray="15 15"/>
<circle cx="174.035" cy="80.0371" r="4.65333" fill="#FF0000"/>
<circle cx="72.5923" cy="182.411" r="4.65333" fill="#F7931E"/>
<circle cx="276.408" cy="182.411" r="4.65333" fill="#F7931E"/>
<circle cx="174.035" cy="282.922" r="4.65333" fill="#FF0000"/>
<circle opacity="0.5" cx="174.035" cy="182.411" r="153.06" stroke="black" stroke-dasharray="15 15"/>
<circle cx="172.367" cy="182.604" r="40.7408" fill="white" stroke="#FF7F00" stroke-width="25"/>
<path d="M237.32 219.34L187.008 233.633V205.046L237.32 219.34Z" fill="#FF7F00"/>
<circle cx="174.035" cy="27.92" r="27.92" fill="#F5F7FB"/>
<circle cx="81.2769" cy="66.1822" r="27.92" fill="#F5F7FB"/>
<circle cx="174.035" cy="334.109" r="27.92" fill="#F5F7FB"/>
<circle cx="277.227" cy="291.209" r="27.92" fill="#F5F7FB"/>
<circle cx="68.523" cy="290.049" r="27.92" fill="#F5F7FB"/>
<circle cx="321.08" cy="181.48" r="27.92" fill="#F5F7FB"/>
<circle cx="286.296" cy="74.8087" r="27.92" fill="#F5F7FB"/>
<circle cx="27.92" cy="182.411" r="27.92" fill="#F5F7FB"/>
<path d="M334.634 168.573C332.201 166.142 329.101 164.488 325.726 163.818C322.352 163.148 318.855 163.493 315.677 164.81C312.499 166.127 309.782 168.356 307.871 171.216C305.96 174.076 304.94 177.438 304.94 180.877C304.94 184.316 305.96 187.678 307.871 190.538C309.782 193.397 312.499 195.627 315.677 196.943C318.855 198.26 322.352 198.606 325.726 197.936C329.101 197.266 332.201 195.611 334.634 193.181C337.894 189.915 339.724 185.49 339.724 180.877C339.724 176.264 337.894 171.839 334.634 168.573ZM336.736 179.328C334.997 179.539 333.232 179.352 331.576 178.78C329.92 178.209 328.415 177.268 327.176 176.029C325.937 174.791 324.996 173.287 324.425 171.631C323.853 169.975 323.666 168.211 323.877 166.472C327.17 166.818 330.243 168.284 332.584 170.624C334.925 172.964 336.391 176.037 336.736 179.328ZM307.917 182.426C309.656 182.215 311.421 182.402 313.077 182.974C314.734 183.545 316.238 184.486 317.477 185.724C318.716 186.963 319.657 188.467 320.228 190.123C320.8 191.779 320.987 193.543 320.776 195.282C317.484 194.936 314.41 193.47 312.069 191.13C309.729 188.79 308.263 185.717 307.917 182.426ZM332.583 191.126C330.2 193.513 327.056 194.991 323.696 195.301C323.904 193.174 323.638 191.027 322.917 189.016C322.196 187.004 321.038 185.177 319.526 183.666C318.014 182.156 316.186 180.999 314.173 180.279C312.16 179.559 310.013 179.294 307.885 179.504C308.201 176.146 309.68 173.003 312.066 170.62C314.453 168.236 317.598 166.761 320.957 166.449C320.762 168.459 320.99 170.489 321.626 172.406C322.263 174.323 323.293 176.086 324.652 177.582C326.01 179.077 327.666 180.272 329.514 181.089C331.362 181.906 333.361 182.328 335.381 182.327C335.841 182.327 336.303 182.304 336.764 182.26C336.449 185.614 334.97 188.752 332.583 191.13V191.126Z" fill="#1B61A0"/>
<path d="M187.834 316.535H161.746C160.362 316.535 159.035 316.993 158.057 317.809C157.078 318.624 156.528 319.73 156.528 320.883V344.797C156.531 346.526 157.356 348.184 158.823 349.407C160.29 350.63 162.28 351.317 164.355 351.319H191.312V319.434C191.312 318.665 190.946 317.928 190.294 317.384C189.641 316.841 188.757 316.535 187.834 316.535V316.535ZM166.964 320.883V338.275H164.355C163.464 338.282 162.581 338.418 161.746 338.675V320.883H166.964ZM186.095 346.971H164.355C163.663 346.971 162.999 346.742 162.51 346.334C162.021 345.927 161.746 345.374 161.746 344.797C161.746 344.221 162.021 343.668 162.51 343.26C162.999 342.852 163.663 342.623 164.355 342.623H186.095V346.971ZM172.181 338.275V320.883H186.095V338.275H172.181Z" fill="#DFCE30"/>
<path d="M39.0112 164.485C38.5197 164.077 37.944 163.783 37.3254 163.623C36.7068 163.463 36.0605 163.442 35.4327 163.561L18.0417 166.818C17.0441 167.004 16.1432 167.534 15.4952 168.315C14.8472 169.096 14.4929 170.08 14.4936 171.095V187.48C13.6162 186.958 12.6156 186.68 11.5949 186.674C10.4482 186.674 9.32734 187.014 8.37394 187.651C7.42055 188.288 6.67747 189.193 6.23867 190.253C5.79988 191.312 5.68507 192.478 5.90876 193.602C6.13246 194.727 6.68462 195.76 7.49541 196.571C8.30621 197.382 9.33922 197.934 10.4638 198.158C11.5884 198.381 12.7541 198.266 13.8135 197.828C14.8728 197.389 15.7783 196.646 16.4153 195.692C17.0523 194.739 17.3924 193.618 17.3924 192.471V177.137L37.6836 173.34V183.139C36.8069 182.615 35.8062 182.334 34.7848 182.326C33.6382 182.326 32.5173 182.666 31.5639 183.303C30.6105 183.94 29.8675 184.845 29.4287 185.905C28.9899 186.964 28.875 188.13 29.0987 189.254C29.3224 190.379 29.8746 191.412 30.6854 192.223C31.4962 193.034 32.5292 193.586 33.6538 193.809C34.7784 194.033 35.9441 193.918 37.0034 193.479C38.0628 193.041 38.9682 192.298 39.6053 191.344C40.2423 190.391 40.5823 189.27 40.5823 188.123V167.832C40.5825 167.193 40.4417 166.562 40.1702 165.983C39.8986 165.405 39.5029 164.894 39.0112 164.485ZM11.5949 195.37C11.0215 195.37 10.4611 195.2 9.9844 194.882C9.50771 194.563 9.13617 194.11 8.91677 193.581C8.69737 193.051 8.63996 192.468 8.75181 191.906C8.86366 191.344 9.13974 190.827 9.54514 190.422C9.95053 190.016 10.467 189.74 11.0293 189.628C11.5916 189.517 12.1745 189.574 12.7042 189.793C13.2338 190.013 13.6866 190.384 14.0051 190.861C14.3236 191.338 14.4936 191.898 14.4936 192.471C14.4936 193.24 14.1882 193.978 13.6446 194.521C13.101 195.065 12.3637 195.37 11.5949 195.37ZM17.3924 174.189V171.095C17.3923 170.757 17.5103 170.429 17.726 170.169C17.9417 169.909 18.2415 169.732 18.5736 169.67L35.9661 166.409C36.1754 166.369 36.3908 166.377 36.597 166.43C36.8031 166.483 36.995 166.581 37.159 166.717C37.323 166.853 37.455 167.023 37.5457 167.216C37.6363 167.409 37.6834 167.619 37.6836 167.832V170.383L17.3924 174.189ZM34.7848 191.022C34.2115 191.022 33.6511 190.852 33.1744 190.534C32.6977 190.215 32.3261 189.762 32.1067 189.233C31.8873 188.703 31.8299 188.12 31.9418 187.558C32.0536 186.995 32.3297 186.479 32.7351 186.074C33.1405 185.668 33.657 185.392 34.2193 185.28C34.7816 185.168 35.3645 185.226 35.8941 185.445C36.4238 185.665 36.8765 186.036 37.1951 186.513C37.5136 186.99 37.6836 187.55 37.6836 188.123C37.6836 188.892 37.3782 189.629 36.8346 190.173C36.2909 190.717 35.5536 191.022 34.7848 191.022Z" fill="#30B354"/>
<path d="M191.312 12.8649H173.92V16.6593L172.435 13.6867C172.117 13.0507 171.659 12.5225 171.109 12.1553C170.558 11.7881 169.933 11.5947 169.297 11.5947C168.661 11.5947 168.036 11.7881 167.485 12.1553C166.935 12.5225 166.477 13.0507 166.159 13.6867L156.528 32.9499H166.936C166.602 34.5496 166.587 36.216 166.891 37.8236C167.196 39.4312 167.812 40.9381 168.693 42.2308C169.575 43.5236 170.699 44.5685 171.981 45.287C173.263 46.0055 174.669 46.3788 176.094 46.3788C177.519 46.3788 178.926 46.0055 180.208 45.287C181.49 44.5685 182.614 43.5236 183.495 42.2308C184.377 40.9381 184.993 39.4312 185.298 37.8236C185.602 36.216 185.587 34.5496 185.253 32.9499H191.312V12.8649ZM164.065 27.9287L169.297 17.4527L173.138 25.1352C171.683 25.6924 170.367 26.6513 169.306 27.9287H164.065ZM176.094 41.3186C175.091 41.3186 174.11 40.9751 173.276 40.3314C172.442 39.6877 171.792 38.7728 171.408 37.7023C171.024 36.6319 170.923 35.454 171.119 34.3177C171.315 33.1813 171.798 32.1375 172.507 31.3182C173.217 30.4989 174.121 29.941 175.105 29.715C176.089 29.4889 177.109 29.6049 178.036 30.0483C178.962 30.4917 179.755 31.2426 180.312 32.2059C180.87 33.1693 181.167 34.3019 181.167 35.4605C181.167 37.0142 180.633 38.5042 179.681 39.6028C178.73 40.7015 177.44 41.3186 176.094 41.3186ZM186.964 27.9287H182.883C181.63 26.4223 180.028 25.3652 178.268 24.8841V17.8862H186.964V27.9287Z" fill="#FF2103"/>
<path d="M98.4908 75.825C98.4343 75.6432 98.3425 75.4744 98.2208 75.3281C98.099 75.1818 97.9496 75.0609 97.7811 74.9723C97.6126 74.8838 97.4283 74.8293 97.2387 74.8119C97.0491 74.7946 96.858 74.8148 96.6763 74.8714L94.7921 75.4511L93.4428 71.4843C94.8601 70.689 95.9655 69.4364 96.5784 67.9312C97.1913 66.4261 97.2754 64.7575 96.8168 63.1984L94.1457 55.2633C93.8095 54.18 93.0663 53.2693 92.0724 52.7227C91.0785 52.1762 89.9114 52.0364 88.8165 52.3327L83.2337 53.8893C82.433 54.1121 81.7141 54.5622 81.164 55.185C80.6139 54.5622 79.895 54.1121 79.0944 53.8893L73.5101 52.3327C72.4232 52.0329 71.2624 52.1659 70.2714 52.7037C69.2804 53.2414 68.5363 54.1422 68.1953 55.2169L65.4894 63.2709C65.0489 64.8288 65.1475 66.4899 65.7695 67.9847C66.3914 69.4795 67.5 70.7203 68.9157 71.506L67.5475 75.4598L65.6561 74.8714C65.4743 74.8143 65.2831 74.7935 65.0933 74.8103C64.9036 74.8271 64.7189 74.8812 64.55 74.9693C64.3811 75.0575 64.2313 75.178 64.1089 75.3241C63.9866 75.4702 63.8943 75.6389 63.8372 75.8207C63.7801 76.0024 63.7594 76.1937 63.7762 76.3834C63.793 76.5732 63.847 76.7578 63.9351 76.9267C64.0233 77.0956 64.1439 77.2455 64.2899 77.3678C64.436 77.4901 64.6047 77.5825 64.7865 77.6396L67.9171 78.6121C67.9388 78.6121 67.9519 78.6367 67.9736 78.6454C67.9953 78.6541 68.049 78.6541 68.0866 78.6643L71.2476 79.6455C71.6147 79.7596 72.0121 79.7233 72.3524 79.5444C72.6927 79.3656 72.9481 79.0589 73.0622 78.6918C73.1764 78.3247 73.14 77.9273 72.9612 77.587C72.7823 77.2467 72.4756 76.9914 72.1086 76.8772L70.3172 76.3192L71.6723 72.406C71.9411 72.4405 72.2115 72.4599 72.4825 72.464C74.0495 72.4601 75.573 71.9485 76.8246 71.0057C78.0762 70.0629 78.9886 68.7398 79.4248 67.2348L81.164 62.081L82.8786 67.1536C83.3012 68.6778 84.2109 70.0219 85.4688 70.9807C86.7267 71.9395 88.2638 72.4605 89.8455 72.464C90.1271 72.4613 90.4083 72.442 90.6876 72.406L92.0181 76.3192L90.2151 76.8787C89.848 76.9928 89.5413 77.2482 89.3625 77.5885C89.1836 77.9288 89.1473 78.3262 89.2614 78.6933C89.3756 79.0603 89.6309 79.367 89.9712 79.5459C90.3115 79.7247 90.7089 79.7611 91.076 79.6469L94.2283 78.6686C94.266 78.6585 94.3051 78.6686 94.3428 78.6498C94.3805 78.6309 94.3805 78.6222 94.4037 78.6135L97.5372 77.641C97.7191 77.5845 97.8881 77.4927 98.0345 77.3708C98.181 77.249 98.3019 77.0994 98.3905 76.9307C98.4791 76.7621 98.5335 76.5776 98.5507 76.3879C98.5679 76.1981 98.5476 76.0069 98.4908 75.825ZM83.1308 57.3793C83.223 57.2095 83.3486 57.0601 83.5 56.94C83.6514 56.82 83.8256 56.7318 84.0119 56.6807L89.5933 55.1256C89.7179 55.0907 89.8466 55.0727 89.976 55.072C90.2947 55.0754 90.6039 55.1814 90.8577 55.3743C91.1114 55.5672 91.2962 55.8368 91.3847 56.143L92.4877 59.42H83.3235L83.0119 58.4968C82.9563 58.312 82.9382 58.1179 82.9586 57.9261C82.979 57.7342 83.0376 57.5483 83.1308 57.3793ZM72.3491 55.072C72.4789 55.0722 72.6081 55.0898 72.7332 55.1242L78.3161 56.6807C78.6849 56.7825 78.9985 57.0259 79.1886 57.358C79.3786 57.69 79.4297 58.0837 79.3306 58.4533L79.0045 59.42H69.8403L70.9563 56.101C71.0484 55.8034 71.2333 55.543 71.4838 55.3579C71.7344 55.1728 72.0376 55.0726 72.3491 55.072ZM76.6595 66.3768C76.428 67.2041 75.9566 67.9443 75.3048 68.5039C74.653 69.0636 73.8501 69.4176 72.9973 69.5213C72.1445 69.625 71.2801 69.4738 70.5132 69.0868C69.7463 68.6997 69.1112 68.0941 68.6881 67.3464C68.128 66.3697 67.9759 65.2113 68.2649 64.1231L68.8649 62.3187H78.0276L76.6595 66.3768ZM87.7208 68.9972C87.213 68.709 86.7679 68.3222 86.4117 67.8595C86.0555 67.3968 85.7955 66.8676 85.6468 66.3029L84.3004 62.3187H93.4645L94.0443 64.0492C94.2756 64.8779 94.2558 65.7567 93.9874 66.5742C93.719 67.3917 93.2141 68.1112 92.5366 68.6416C91.859 69.172 91.0394 69.4895 90.1813 69.5538C89.3233 69.6182 88.4655 69.4265 87.7165 69.003L87.7208 68.9972Z" fill="#FF7F00"/>
<path d="M292.219 286.968H292.052C292.253 286.307 292.299 285.607 292.185 284.925C292.071 284.242 291.801 283.595 291.396 283.034C290.991 282.473 290.462 282.013 289.849 281.69C289.237 281.367 288.558 281.189 287.866 281.171H267.552C259.643 281.71 264.65 293.709 266.698 296.986C267.616 298.375 268.868 299.513 270.339 300.295C271.81 301.076 273.454 301.478 275.12 301.462H280.296C281.936 301.477 283.554 301.088 285.007 300.33C286.46 299.571 287.704 298.467 288.628 297.114H292.219C299.204 296.979 300.575 286.71 292.219 286.968ZM280.296 298.563H275.12C273.937 298.579 272.768 298.298 271.721 297.747C270.674 297.195 269.782 296.39 269.126 295.405C268.337 294.65 263.916 284.07 267.552 284.07H287.866C288.066 284.069 288.263 284.111 288.445 284.192C288.628 284.273 288.791 284.392 288.924 284.541C289.065 284.696 289.172 284.88 289.237 285.08C289.303 285.28 289.325 285.491 289.302 285.7C288.485 291.873 286.949 298.289 280.296 298.563ZM292.219 294.215H290.17C290.767 292.812 291.23 291.356 291.554 289.867C293.309 289.75 295.249 290.18 295.121 291.524C295.074 292.258 294.747 292.946 294.207 293.447C293.667 293.948 292.955 294.223 292.219 294.215ZM276.294 276.823V273.924C276.294 273.54 276.447 273.171 276.719 272.9C276.991 272.628 277.36 272.475 277.745 272.475C278.13 272.475 278.499 272.628 278.771 272.9C279.043 273.171 279.196 273.54 279.196 273.924V276.823C279.196 277.207 279.043 277.576 278.771 277.848C278.499 278.12 278.13 278.272 277.745 278.272C277.36 278.272 276.991 278.12 276.719 277.848C276.447 277.576 276.294 277.207 276.294 276.823ZM282.098 276.823V273.924C282.098 273.54 282.251 273.171 282.523 272.9C282.795 272.628 283.164 272.475 283.549 272.475C283.934 272.475 284.303 272.628 284.575 272.9C284.847 273.171 285 273.54 285 273.924V276.823C285 277.207 284.847 277.576 284.575 277.848C284.303 278.12 283.934 278.272 283.549 278.272C283.164 278.272 282.795 278.12 282.523 277.848C282.251 277.576 282.098 277.207 282.098 276.823ZM270.49 276.823V273.924C270.49 273.54 270.643 273.171 270.915 272.9C271.187 272.628 271.557 272.475 271.941 272.475C272.326 272.475 272.695 272.628 272.967 272.9C273.239 273.171 273.392 273.54 273.392 273.924V276.823C273.392 277.207 273.239 277.576 272.967 277.848C272.695 278.12 272.326 278.272 271.941 278.272C271.557 278.272 271.187 278.12 270.915 277.848C270.643 277.576 270.49 277.207 270.49 276.823ZM292.219 305.81C292.219 306.194 292.066 306.563 291.794 306.835C291.522 307.106 291.153 307.259 290.768 307.259H264.65C264.265 307.259 263.896 307.106 263.624 306.835C263.352 306.563 263.199 306.194 263.199 305.81C263.199 305.425 263.352 305.057 263.624 304.785C263.896 304.513 264.265 304.36 264.65 304.36H290.768C291.153 304.36 291.522 304.513 291.794 304.785C292.066 305.057 292.219 305.425 292.219 305.81Z" fill="#E026E3"/>
<path d="M70.3487 278.263C72.2087 278.263 73.7305 276.741 73.7305 274.881C73.7305 273.021 72.2087 271.499 70.3487 271.499C68.4888 271.499 66.967 273.021 66.967 274.881C66.967 276.741 68.4888 278.263 70.3487 278.263ZM64.2615 301.766L65.9524 294.326L69.5033 297.708V307.853H72.8851V295.172L69.3342 291.79L70.3487 286.717C72.5469 289.253 75.9287 290.944 79.6486 290.944V287.562C76.4359 287.562 73.7305 285.872 72.3778 283.504L70.6869 280.799C70.0106 279.784 68.996 279.108 67.8124 279.108C67.3051 279.108 66.967 279.277 66.4597 279.277L57.6671 282.997V290.944H61.0488V285.195L64.0924 284.012L61.387 297.708L53.1016 296.017L52.4253 299.399L64.2615 301.766Z" fill="#0500FF"/>
<path d="M272.282 64.8339H302.718V61.4521H272.282C270.422 61.4521 268.9 62.974 268.9 64.8339V83.4337H265.519V88.5064H289.191V83.4337H272.282V64.8339ZM304.409 68.2157H294.264C293.334 68.2157 292.573 68.9766 292.573 69.9066V86.8155C292.573 87.7455 293.334 88.5064 294.264 88.5064H304.409C305.339 88.5064 306.1 87.7455 306.1 86.8155V69.9066C306.1 68.9766 305.339 68.2157 304.409 68.2157ZM302.718 83.4337H295.955V71.5975H302.718V83.4337Z" fill="#FFD600"/>
</svg>
