<svg width="96" height="30" viewBox="0 0 96 30" fill="none" xmlns="http://www.w3.org/2000/svg">
<path d="M8.89559 26.3C7.37559 26.3 6.02559 25.98 4.84559 25.34C3.66559 24.68 2.72559 23.78 2.02559 22.64C1.34559 21.5 1.00559 20.2 1.00559 18.74C1.00559 17.3 1.33559 16.02 1.99559 14.9C2.67559 13.76 3.59559 12.86 4.75559 12.2C5.91559 11.52 7.20559 11.18 8.62559 11.18C10.0256 11.18 11.2556 11.5 12.3156 12.14C13.3956 12.76 14.2356 13.62 14.8356 14.72C15.4556 15.8 15.7656 17.03 15.7656 18.41C15.7656 18.67 15.7456 18.94 15.7056 19.22C15.6856 19.48 15.6356 19.78 15.5556 20.12L3.37559 20.15V17.21L13.7256 17.18L12.1356 18.41C12.0956 17.55 11.9356 16.83 11.6556 16.25C11.3956 15.67 11.0056 15.23 10.4856 14.93C9.98559 14.61 9.36559 14.45 8.62559 14.45C7.84559 14.45 7.16559 14.63 6.58559 14.99C6.00559 15.33 5.55559 15.82 5.23559 16.46C4.93559 17.08 4.78559 17.82 4.78559 18.68C4.78559 19.56 4.94559 20.33 5.26559 20.99C5.60559 21.63 6.08559 22.13 6.70559 22.49C7.32559 22.83 8.04559 23 8.86559 23C9.60559 23 10.2756 22.88 10.8756 22.64C11.4756 22.38 11.9956 22 12.4356 21.5L14.7456 23.81C14.0456 24.63 13.1856 25.25 12.1656 25.67C11.1656 26.09 10.0756 26.3 8.89559 26.3ZM22.6717 26L16.2817 11.51H20.6017L25.1917 23.45H23.0617L27.6817 11.51H31.8517L25.4917 26H22.6717ZM40.1554 26.3C38.6354 26.3 37.2854 25.98 36.1054 25.34C34.9254 24.68 33.9854 23.78 33.2854 22.64C32.6054 21.5 32.2654 20.2 32.2654 18.74C32.2654 17.3 32.5954 16.02 33.2554 14.9C33.9354 13.76 34.8554 12.86 36.0154 12.2C37.1754 11.52 38.4654 11.18 39.8854 11.18C41.2854 11.18 42.5154 11.5 43.5754 12.14C44.6554 12.76 45.4954 13.62 46.0954 14.72C46.7154 15.8 47.0254 17.03 47.0254 18.41C47.0254 18.67 47.0054 18.94 46.9654 19.22C46.9454 19.48 46.8954 19.78 46.8154 20.12L34.6354 20.15V17.21L44.9854 17.18L43.3954 18.41C43.3554 17.55 43.1954 16.83 42.9154 16.25C42.6554 15.67 42.2654 15.23 41.7454 14.93C41.2454 14.61 40.6254 14.45 39.8854 14.45C39.1054 14.45 38.4254 14.63 37.8454 14.99C37.2654 15.33 36.8154 15.82 36.4954 16.46C36.1954 17.08 36.0454 17.82 36.0454 18.68C36.0454 19.56 36.2054 20.33 36.5254 20.99C36.8654 21.63 37.3454 22.13 37.9654 22.49C38.5854 22.83 39.3054 23 40.1254 23C40.8654 23 41.5354 22.88 42.1354 22.64C42.7354 22.38 43.2554 22 43.6954 21.5L46.0054 23.81C45.3054 24.63 44.4454 25.25 43.4254 25.67C42.4254 26.09 41.3354 26.3 40.1554 26.3ZM59.2058 26V17.69C59.2058 16.83 58.9358 16.13 58.3958 15.59C57.8558 15.05 57.1558 14.78 56.2958 14.78C55.7358 14.78 55.2358 14.9 54.7958 15.14C54.3558 15.38 54.0058 15.72 53.7458 16.16C53.5058 16.6 53.3858 17.11 53.3858 17.69L51.8558 16.91C51.8558 15.77 52.0958 14.78 52.5758 13.94C53.0758 13.08 53.7558 12.41 54.6158 11.93C55.4958 11.45 56.4858 11.21 57.5858 11.21C58.6458 11.21 59.5958 11.48 60.4358 12.02C61.2758 12.54 61.9358 13.23 62.4158 14.09C62.8958 14.93 63.1358 15.84 63.1358 16.82V26H59.2058ZM49.4558 26V11.51H53.3858V26H49.4558ZM68.2557 26V5.48H72.1857V26H68.2557ZM64.8657 14.96V11.51H75.5757V14.96H64.8657ZM84.2443 26.3C82.7843 26.3 81.4643 25.97 80.2843 25.31C79.1243 24.63 78.1943 23.72 77.4943 22.58C76.8143 21.42 76.4743 20.13 76.4743 18.71C76.4743 17.29 76.8143 16.02 77.4943 14.9C78.1743 13.76 79.1043 12.86 80.2843 12.2C81.4643 11.52 82.7743 11.18 84.2143 11.18C85.6943 11.18 87.0143 11.52 88.1743 12.2C89.3543 12.86 90.2843 13.76 90.9643 14.9C91.6443 16.02 91.9843 17.29 91.9843 18.71C91.9843 20.13 91.6443 21.42 90.9643 22.58C90.2843 23.72 89.3543 24.63 88.1743 25.31C87.0143 25.97 85.7043 26.3 84.2443 26.3ZM84.2143 22.64C84.9543 22.64 85.6043 22.48 86.1643 22.16C86.7443 21.82 87.1843 21.36 87.4843 20.78C87.8043 20.18 87.9643 19.5 87.9643 18.74C87.9643 17.98 87.8043 17.31 87.4843 16.73C87.1643 16.15 86.7243 15.7 86.1643 15.38C85.6043 15.04 84.9543 14.87 84.2143 14.87C83.4943 14.87 82.8543 15.04 82.2943 15.38C81.7343 15.7 81.2943 16.15 80.9743 16.73C80.6543 17.31 80.4943 17.98 80.4943 18.74C80.4943 19.5 80.6543 20.18 80.9743 20.78C81.2943 21.36 81.7343 21.82 82.2943 22.16C82.8543 22.48 83.4943 22.64 84.2143 22.64Z" fill="#FF7F00"/>
<path d="M96 23.5L87.75 25.6651V21.3349L96 23.5Z" fill="#FF7F00"/>
</svg>
