<svg width="375" height="342" viewBox="0 0 375 342" fill="none" xmlns="http://www.w3.org/2000/svg">
<circle cx="86" cy="305" r="30" fill="#F5F7FB"/>
<circle cx="86" cy="305" r="29" stroke="black" stroke-opacity="0.6" stroke-width="2" stroke-dasharray="30 30"/>
<circle cx="268" cy="305" r="30" fill="#F5F7FB"/>
<circle cx="268" cy="305" r="29" stroke="black" stroke-opacity="0.6" stroke-width="2" stroke-dasharray="30 30"/>
<circle cx="268" cy="30" r="30" fill="#F5F7FB"/>
<circle cx="268" cy="30" r="29" stroke="black" stroke-opacity="0.6" stroke-width="2" stroke-dasharray="30 30"/>
<circle cx="86" cy="30" r="30" fill="#F5F7FB"/>
<circle cx="86" cy="30" r="29" stroke="black" stroke-opacity="0.6" stroke-width="2" stroke-dasharray="30 30"/>
<circle cx="30" cy="172" r="30" fill="#F5F7FB"/>
<circle cx="30" cy="172" r="29" stroke="black" stroke-opacity="0.6" stroke-width="2" stroke-dasharray="30 30"/>
<circle cx="345" cy="173" r="30" fill="#F5F7FB"/>
<circle cx="345" cy="173" r="29" stroke="black" stroke-opacity="0.6" stroke-width="2" stroke-dasharray="30 30"/>
<circle cx="187" cy="172" r="54.5" stroke="black" stroke-dasharray="10 10"/>
<circle opacity="0.5" cx="187" cy="172" r="109.5" stroke="#FF2103" stroke-dasharray="15 15"/>
<circle cx="187" cy="8" r="5" fill="#FF7F00"/>
<circle cx="187" cy="337" r="5" fill="#FF0000"/>
<circle cx="40" cy="247" r="5" fill="#FF7F00"/>
<circle cx="334" cy="247" r="5" fill="#FF7F00"/>
<circle cx="41" cy="96" r="5" fill="#FF0000"/>
<circle cx="333" cy="96" r="5" fill="#FF0000"/>
<circle opacity="0.5" cx="187" cy="172" r="164.5" stroke="#FF7F00" stroke-dasharray="15 15"/>
<circle cx="185.207" cy="172.207" r="42.2072" fill="white" stroke="#FF7F00" stroke-width="30"/>
<path d="M255 211.68L200.939 227.038V196.322L255 211.68Z" fill="#FF7F00"/>
</svg>
