<svg width="375" height="345" viewBox="0 0 375 345" fill="none" xmlns="http://www.w3.org/2000/svg">
<path fill-rule="evenodd" clip-rule="evenodd" d="M318.495 184.376C318.495 172.854 311.735 162.924 301.969 158.324C299.605 157.13 297.042 156.4 294.303 155.958C294.17 155.936 294.037 155.914 293.927 155.891C269.623 152.353 231.003 172.39 188.428 121.9C123.03 44.3415 62.8677 92.8405 62.8677 133.577C62.8677 275.735 318.495 264.213 318.495 184.376Z" stroke="#DEBAB0" stroke-width="2" stroke-miterlimit="10"/>
<path fill-rule="evenodd" clip-rule="evenodd" d="M274.749 282.768C274.749 282.768 273.667 282.745 265.867 282.745C261.603 282.745 260.764 278.101 260.764 278.101L268.806 277.46L273.313 272.13C273.313 272.13 275.39 275.646 286.989 267.265L291.165 273.7L274.749 282.768Z" fill="white"/>
<path fill-rule="evenodd" clip-rule="evenodd" d="M276.252 266.358L284.471 263.107L287.1 267.021C287.1 267.021 282.836 270.67 278.417 272.572C275.434 273.855 273.313 270.56 273.313 270.56L276.252 266.358Z" fill="white"/>
<path fill-rule="evenodd" clip-rule="evenodd" d="M274.749 281.219C274.749 281.219 273.667 281.197 265.868 281.197C262.576 281.197 260.631 277.968 260.631 277.968L268.806 275.889L273.313 270.56C273.313 270.56 274.97 274.253 286.57 265.871L290.37 272.506L274.749 281.219Z" fill="#5864AC"/>
<path fill-rule="evenodd" clip-rule="evenodd" d="M225.281 277.968C225.281 277.968 225.281 282.745 230.517 282.745C238.316 282.745 257.207 282.745 257.207 282.745V281.197C247.132 281.927 242.404 275.712 242.404 275.712L225.281 277.968Z" fill="white"/>
<path fill-rule="evenodd" clip-rule="evenodd" d="M240.791 274.297L245.541 271.643L255.041 271.533L256.919 281.042C256.919 281.042 244.215 280.534 241.012 278.72C237.808 276.907 240.791 274.297 240.791 274.297Z" fill="white"/>
<path fill-rule="evenodd" clip-rule="evenodd" d="M225.281 277.968L241.807 273.589C241.807 273.589 241.719 277.636 255.461 273.656L257.207 281.175C257.207 281.175 238.294 281.175 230.517 281.175C227.225 281.197 225.281 277.968 225.281 277.968Z" fill="#5864AC"/>
<path fill-rule="evenodd" clip-rule="evenodd" d="M282.725 259.48C282.725 259.502 282.725 259.502 282.725 259.48C282.747 259.502 282.747 259.502 282.747 259.502L284.493 263.372L284.471 263.394C284.382 263.704 282.549 264.743 280.251 265.783C277.931 266.822 275.965 267.486 275.655 267.353L275.611 267.375L273.888 263.549C272.717 263.173 271.722 262.311 271.236 261.117L258.179 228.386L256.411 264.987C256.367 266.048 255.881 266.999 255.13 267.663V271.71H255.108C254.887 271.953 252.81 272.152 250.269 272.152C247.728 272.152 245.652 271.953 245.431 271.71H245.386V267.884C244.613 267.22 244.105 266.247 244.039 265.164L241.586 215.758C241.387 211.888 242.028 208.018 243.42 204.413L248.237 192.05C248.237 192.05 248.325 162.128 248.237 158.413L282.416 151.778C282.46 153.592 282.637 155.25 282.814 165.224C282.924 171.505 271.966 191.144 264.851 203.219L282.769 256.605C283.101 257.578 283.079 258.595 282.725 259.48ZM248.237 158.413H248.192C248.214 157.882 248.237 157.926 248.237 158.413Z" fill="#3F3E3D"/>
<path d="M266.177 165.91C266.177 165.91 265.492 172.743 270.021 176.414" stroke="#010202" stroke-width="2" stroke-miterlimit="10" stroke-linecap="round"/>
<path d="M273.954 163.963C273.954 163.963 274.55 168.01 272.915 171.394C266.906 183.845 251.816 212.86 251.816 212.86L250.291 268.702" stroke="#010202" stroke-width="2" stroke-miterlimit="10" stroke-linecap="round"/>
<path d="M248.236 192.05L256.477 172.721" stroke="#010202" stroke-width="2" stroke-miterlimit="10" stroke-linecap="round"/>
<path fill-rule="evenodd" clip-rule="evenodd" d="M258.179 228.364L258.93 213.06C258.93 213.06 261.647 208.725 265.227 202.622C265.116 202.821 264.984 203.02 264.873 203.219L266.133 206.934C266.574 210.517 266.309 214.697 264.255 218.014C260.653 223.83 259.681 230.089 262.134 238.249L258.179 228.364Z" fill="#020203"/>
<path d="M278.814 262.842L261.493 217.196" stroke="#010202" stroke-width="2" stroke-miterlimit="10" stroke-linecap="round"/>
<path fill-rule="evenodd" clip-rule="evenodd" d="M244.944 267.441C245.011 267.508 245.077 267.596 245.143 267.662C245.077 267.596 245.011 267.53 244.944 267.441ZM282.946 258.683C282.924 258.772 282.924 258.838 282.902 258.927C282.902 258.838 282.924 258.75 282.946 258.683ZM282.858 259.059C282.836 259.104 282.836 259.148 282.813 259.214C282.836 259.17 282.836 259.126 282.858 259.059ZM282.968 258.551C282.968 258.507 282.99 258.44 282.99 258.396C282.968 258.462 282.968 258.507 282.968 258.551ZM273.887 263.549C273.821 263.527 273.777 263.505 273.711 263.483C274.418 263.748 275.191 263.814 275.964 263.659C276.782 263.505 277.688 263.239 278.66 262.819C279.698 262.377 280.604 261.846 281.333 261.315C281.996 260.829 282.482 260.187 282.747 259.458C282.747 259.48 282.747 259.48 282.725 259.502L282.747 259.524L284.493 263.394L284.471 263.416C284.471 263.438 284.426 263.483 284.404 263.527C281.311 262.996 275.633 264.61 274.506 264.92L273.887 263.549ZM247.331 268.746C248.126 268.834 249.076 268.901 250.136 268.857C251.44 268.812 252.478 268.68 253.34 268.525C254.025 268.392 254.644 268.083 255.13 267.64C255.13 267.64 255.13 267.64 255.108 267.662V271.709H255.085C255.041 271.754 254.931 271.798 254.776 271.842C252.235 270.316 246.933 269.653 245.386 269.476V267.884C245.32 267.839 245.254 267.773 245.209 267.707C245.762 268.259 246.513 268.635 247.331 268.746Z" fill="#0A0A09"/>
<path fill-rule="evenodd" clip-rule="evenodd" d="M306.631 119.711C308.553 121.657 309.923 123.448 309.658 123.692C309.415 123.935 307.029 123.249 305.106 121.303C303.184 119.357 302.433 116.88 302.676 116.637C302.919 116.394 304.687 117.765 306.631 119.711Z" fill="#0A0A09"/>
<path fill-rule="evenodd" clip-rule="evenodd" d="M283.631 161.973C282.416 164.052 278.019 166.065 265.801 167.48C254.224 168.829 249.628 168.077 247.971 166.618C246.182 165.025 246.071 163.057 246.116 160.846L283.742 156.024C284.471 157.926 284.913 159.762 283.631 161.973Z" fill="#5766AC"/>
<path fill-rule="evenodd" clip-rule="evenodd" d="M306.675 126.699C307.338 128.579 306.918 130.768 305.394 132.272L298.545 139.017C294.347 143.153 287.763 143.396 283.3 139.725C283.609 140.831 283.985 142.18 284.471 143.816C285.796 148.262 288.867 151.689 286.15 156.312C284.714 158.744 279.566 161.111 265.227 162.791C251.617 164.384 246.226 163.499 244.282 161.796C240.327 158.302 243.398 153.215 241.387 147.775C240.172 144.524 223.845 131.476 223.845 131.476C223.845 131.476 235.002 119.821 241.277 117.212C244.635 115.818 249.894 115.288 249.894 115.288C249.894 115.288 250.623 109.891 259.946 108.852C269.292 107.813 271.236 113.452 271.236 113.452C271.236 113.452 276.252 112.943 281.311 115.42C282.482 115.995 283.742 117.189 284.935 118.605L290.547 124.156L294.015 120.728C295.54 119.224 297.727 118.826 299.605 119.534L302.588 116.57L302.632 116.614C302.389 116.858 303.737 118.649 305.659 120.595C307.581 122.541 309.349 123.935 309.614 123.669L309.636 123.691L306.675 126.699Z" fill="#5766AC"/>
<path fill-rule="evenodd" clip-rule="evenodd" d="M237.985 135.899C237.985 135.899 231.953 131.388 229.788 126.788C229.655 126.522 229.545 126.257 229.457 126.014C230.009 125.505 230.561 124.996 231.158 124.488C231.18 124.51 231.18 124.532 231.202 124.554C233.367 129.154 239.399 133.665 239.399 133.665L237.985 135.899ZM234.428 121.701C235.886 124.067 238.139 126.301 239.819 127.783V131.211C238.228 129.928 234.45 126.633 232.616 123.205C233.213 122.696 233.809 122.188 234.428 121.701ZM282.35 133.245L280.958 131.012C280.958 131.012 286.503 126.854 288.867 122.475L290.547 124.134C288.381 128.756 282.35 133.245 282.35 133.245ZM287.431 121.06C285.531 124.289 282.372 127.274 280.869 128.513L280.538 125.151C282.129 123.736 284.272 121.635 285.73 119.379L287.431 121.06Z" fill="white"/>
<path fill-rule="evenodd" clip-rule="evenodd" d="M261.802 121.193C261.648 121.281 261.427 121.304 261.25 121.215C254.909 118.716 252.788 115.708 253.76 113.276C254.887 110.445 259.814 110.246 260.653 110.224C262.266 109.98 265.956 109.693 267.392 111.816C268.872 113.983 267.458 117.389 261.802 121.193Z" fill="#0A0A09"/>
<path fill-rule="evenodd" clip-rule="evenodd" d="M257.361 113.297C257.361 113.297 255.969 113.917 256.035 115.398C256.212 119.202 261.493 120.817 261.493 120.817C261.493 120.817 265.602 118.472 265.536 115.067C265.536 114.823 257.361 113.297 257.361 113.297Z" fill="white"/>
<path d="M306.432 126.788C306.189 127.031 304.421 125.66 302.477 123.714C300.555 121.768 299.185 119.976 299.45 119.733" stroke="#010202" stroke-width="2" stroke-miterlimit="10" stroke-linecap="round"/>
<path fill-rule="evenodd" clip-rule="evenodd" d="M258.687 138.354C259.063 138.354 259.394 138.664 259.394 139.04C259.394 139.416 259.085 139.726 258.687 139.726C258.311 139.726 257.98 139.416 257.98 139.04C257.98 138.664 258.311 138.354 258.687 138.354Z" fill="white"/>
<path fill-rule="evenodd" clip-rule="evenodd" d="M267.701 137.978C268.077 137.978 268.408 138.288 268.408 138.664C268.408 139.04 268.099 139.349 267.701 139.349C267.326 139.349 266.994 139.04 266.994 138.664C266.994 138.288 267.326 137.978 267.701 137.978Z" fill="white"/>
<path d="M271.325 118.185C271.325 118.185 267.9 121.679 262.686 122.652" stroke="#010202" stroke-width="2" stroke-miterlimit="10" stroke-linecap="round"/>
<path d="M251.793 119.866C251.793 119.866 255.748 122.763 261.029 122.851" stroke="#010202" stroke-width="2" stroke-miterlimit="10" stroke-linecap="round"/>
<path d="M286.15 156.312C284.714 158.744 279.566 161.111 265.227 162.791C251.617 164.384 246.226 163.499 244.282 161.796" stroke="#010202" stroke-width="2" stroke-miterlimit="10" stroke-linecap="round"/>
<path d="M280.494 123.625C280.494 123.625 280.405 130.636 283.498 138.2" stroke="#010202" stroke-width="2" stroke-miterlimit="10" stroke-linecap="round"/>
<path fill-rule="evenodd" clip-rule="evenodd" d="M286.79 141.671C285.575 141.251 284.404 140.61 283.366 139.77C282.504 137.934 281.245 134.219 280.67 127.518C281.156 130.304 282.107 132.693 284.095 134.196C286.989 136.43 287.741 139.703 286.79 141.671Z" fill="#0A0A09"/>
<path d="M265.492 119.755C265.492 119.755 268.231 122.476 268.585 130.459C268.85 136.851 267.237 141.428 267.237 141.428" stroke="white" stroke-width="2" stroke-miterlimit="10" stroke-linecap="round" stroke-linejoin="round"/>
<path d="M257.693 120.883C257.693 120.883 253.23 124.002 257.118 132.273C259.637 137.625 258.82 142.003 258.82 142.003" stroke="white" stroke-width="2" stroke-miterlimit="10" stroke-linecap="round" stroke-linejoin="round"/>
<path fill-rule="evenodd" clip-rule="evenodd" d="M325.013 107.99C323.511 109.051 317.921 112.811 317.921 112.811C317.921 112.811 320.904 111.904 322.892 111.196C324.594 110.599 325.057 111.44 323.555 112.302C322.583 112.855 320.307 113.961 317.766 115.244C313.215 119.158 310.917 119.202 310.63 119.6C309.658 120.861 308.929 121.834 308.421 122.519C307.78 121.989 307.051 121.303 306.278 120.529C304.444 118.671 303.118 116.969 303.229 116.593C304.179 115.642 304.974 114.823 304.974 114.823C304.974 114.823 304.621 113.474 305.681 111.816C306.742 110.179 310.873 104.031 311.558 103.39C312.243 102.748 312.817 103.943 311.558 106.176C309.083 110.577 312.619 108.344 312.619 108.344C312.619 108.344 318.164 104.097 319.468 103.014C321.257 101.51 322.318 102.129 320.926 103.633C318.694 106.066 316.242 108.388 316.242 108.388C316.242 108.388 321.832 105.292 323.378 104.518C325.146 103.633 325.212 104.894 324.262 105.557C321.81 107.26 317.258 110.29 317.258 110.29C317.258 110.29 321.346 108.366 324.306 106.795C325.831 105.999 326.648 106.84 325.013 107.99Z" fill="#F28C3B"/>
<path d="M315.402 108.277C315.402 108.277 317.943 110.843 317.766 113.85" stroke="#010202" stroke-width="2" stroke-miterlimit="10" stroke-linecap="round"/>
<path d="M311.05 110.555C311.05 110.555 311.425 114.226 308.177 116.371" stroke="#010202" stroke-width="2" stroke-miterlimit="10" stroke-linecap="round"/>
<path fill-rule="evenodd" clip-rule="evenodd" d="M269.646 100.913C269.646 100.913 269.646 100.935 269.646 100.957C269.734 101.267 269.8 101.598 269.8 101.93C269.8 103.766 268.298 105.247 266.464 105.247C264.63 105.247 263.128 103.766 263.128 101.93C263.128 101.023 263.481 100.205 264.078 99.608C264.078 98.1926 264.188 96.9541 264.188 96.9541C264.188 96.9541 264.962 95.6935 266.199 96.357C267.105 96.8435 267.061 97.8387 267.061 97.8387C267.061 97.8387 269.027 97.0426 269.999 98.458C270.64 99.4753 269.646 100.913 269.646 100.913ZM250.6 105.491C249.275 104.429 249.628 103.014 249.628 103.014C249.628 103.014 247.905 101.864 248.722 100.095C249.231 98.9666 250.91 99.0993 250.91 99.0993L251.087 98.4801L253.694 97.131L254.577 105.645C254.577 105.69 252.501 107.017 250.6 105.491Z" fill="#0A0A09"/>
<path fill-rule="evenodd" clip-rule="evenodd" d="M255.196 105.822H264.52L265.536 115.066C265.536 115.066 264.299 117.588 260.654 117.588C256.853 117.588 256.036 115.553 256.036 115.553L255.196 105.822Z" fill="#F28C3B"/>
<path fill-rule="evenodd" clip-rule="evenodd" d="M264.696 107.039L265.293 112.722C263.967 113.939 261.471 114.315 259.129 113.364C257.538 112.722 256.301 111.639 255.66 110.444L255.351 107.392C255.616 106.729 256.102 106.198 256.743 105.822H262.443C263.304 106.198 264.078 106.441 264.696 107.039Z" fill="#0A0A09"/>
<path fill-rule="evenodd" clip-rule="evenodd" d="M265.58 103.589C265.624 103.921 265.691 104.252 265.735 104.606C265.779 104.805 265.823 105.026 265.845 105.248C266.199 108.388 263.79 111.374 260.454 111.882C257.891 112.28 255.549 111.13 254.423 109.14C254.091 108.609 253.87 107.99 253.782 107.238C253.671 106.331 253.627 105.557 253.605 104.849C253.031 104.872 252.522 104.385 252.434 103.677C252.346 102.948 252.788 102.262 253.406 102.151C253.45 102.151 253.517 102.151 253.561 102.151C253.561 101.046 253.561 99.9177 253.384 98.4139C253.163 96.3793 257.273 93.9908 258.223 93.46V93.3937C258.223 93.3937 258.267 93.3937 258.333 93.4158C258.399 93.3716 258.444 93.3716 258.444 93.3716V93.4379C259.482 93.6591 263.989 94.6985 264.232 96.7331C264.431 98.5245 264.74 99.7187 265.028 100.957C265.094 100.935 265.138 100.913 265.204 100.913C265.823 100.824 266.398 101.333 266.486 102.063C266.574 102.815 266.177 103.456 265.58 103.589Z" fill="#F28C3B"/>
<path d="M262.708 99.0767C262.708 99.0767 261.36 98.8335 260.41 99.1652" stroke="#010202" stroke-width="2" stroke-miterlimit="10" stroke-linecap="round"/>
<path d="M255.13 100.095C255.13 100.095 256.367 99.4974 257.383 99.5637" stroke="#010202" stroke-width="2" stroke-miterlimit="10" stroke-linecap="round"/>
<path d="M258.819 100.537C258.819 100.537 258.886 101.377 258.665 102.881C258.466 104.186 259.593 104.208 259.593 104.208" stroke="#010202" stroke-width="2" stroke-miterlimit="10" stroke-linecap="round"/>
<path fill-rule="evenodd" clip-rule="evenodd" d="M256.5 101.244C256.787 101.2 257.03 101.399 257.074 101.687C257.118 101.974 256.92 102.218 256.632 102.262C256.345 102.306 256.102 102.107 256.058 101.819C256.014 101.532 256.213 101.289 256.5 101.244Z" fill="#0A0A09"/>
<path fill-rule="evenodd" clip-rule="evenodd" d="M261.758 100.536C262.045 100.492 262.288 100.691 262.333 100.979C262.377 101.266 262.178 101.51 261.891 101.554C261.603 101.598 261.36 101.399 261.316 101.111C261.272 100.846 261.471 100.581 261.758 100.536Z" fill="#0A0A09"/>
<path fill-rule="evenodd" clip-rule="evenodd" d="M253.252 95.5612C254.71 94.8092 256.477 95.3179 257.184 96.689C257.891 98.0602 257.295 99.8073 255.837 100.559C254.379 101.311 252.611 100.802 251.904 99.4313C251.197 98.0381 251.794 96.3131 253.252 95.5612Z" fill="#0A0A09"/>
<path d="M247.441 99.8511C247.441 99.8511 249.253 97.8828 251.749 99.453C254.003 100.868 253.561 100.515 253.274 100.559" stroke="#010202" stroke-width="2" stroke-miterlimit="10" stroke-linecap="round"/>
<path fill-rule="evenodd" clip-rule="evenodd" d="M266.707 97.4406C266.707 97.4406 266.597 97.2858 266.575 97.3079C266 96.6223 262.642 96.4012 258.621 96.9098C254.666 97.4185 251.484 98.4137 251.043 99.2319C250.976 99.2983 250.976 99.5415 250.976 99.5415C250.976 99.5415 250.601 98.8338 250.534 97.7502C250.446 96.2685 250.733 96.1137 250.733 96.1137H250.755C250.733 95.7819 251.219 95.4281 252.059 95.0742C252.744 94.079 253.76 92.6194 254.401 91.7127C255.506 90.1867 255.903 89.2579 258.157 89.081C259.88 88.9483 263.062 91.6021 264.675 93.4156C265.735 93.5483 266.376 93.8137 266.42 94.1675V94.1896H266.442C266.442 94.1896 266.751 94.3887 266.906 95.6492C267.127 96.9762 266.707 97.4406 266.707 97.4406ZM266.575 97.3079C266.619 97.3521 266.663 97.4185 266.663 97.4848C266.641 97.4185 266.597 97.3742 266.575 97.3079ZM251.043 99.2319C251.021 99.3204 250.998 99.3867 250.976 99.4752C250.976 99.3867 250.998 99.3204 251.043 99.2319Z" fill="#CA4441"/>
<path fill-rule="evenodd" clip-rule="evenodd" d="M258.643 96.91C254.29 97.4408 250.733 98.5908 250.821 99.3648C250.866 99.7408 251.904 99.8735 253.384 99.9398C252.677 99.8514 252.258 99.6744 252.213 99.4312C252.125 98.7898 255.086 97.8831 258.819 97.4187C262.553 96.9543 265.647 97.1091 265.713 97.7504C265.735 97.9273 265.514 98.1264 265.116 98.3254C266.133 97.9716 266.707 97.5956 266.663 97.286C266.597 96.5341 262.995 96.3571 258.643 96.91Z" fill="#0A0A09"/>
<path d="M250.755 96.158C250.645 95.2955 254.069 94.1455 258.4 93.5926C262.73 93.0397 266.331 93.3051 266.442 94.1676" stroke="#010202" stroke-width="2" stroke-miterlimit="10" stroke-linecap="round"/>
<path fill-rule="evenodd" clip-rule="evenodd" d="M261.515 104.916C261.648 106.043 260.83 107.083 259.703 107.238C258.554 107.37 257.516 106.574 257.361 105.446L261.515 104.916Z" fill="white"/>
<path d="M265.736 101.708L265.271 102.151" stroke="#010202" stroke-width="2" stroke-miterlimit="10" stroke-linecap="round" stroke-linejoin="round"/>
<path d="M252.92 103.213L253.605 103.633" stroke="#010202" stroke-width="2" stroke-miterlimit="10" stroke-linecap="round" stroke-linejoin="round"/>
<path fill-rule="evenodd" clip-rule="evenodd" d="M136.529 268.812L145.985 268.879L146.869 277.592L135.689 277.526L136.529 268.812Z" fill="white"/>
<path fill-rule="evenodd" clip-rule="evenodd" d="M130.1 277.393C130.1 277.393 129.857 282.524 134.364 282.524C142.163 282.524 147.422 282.524 147.422 282.524L147.466 280.932L143.931 276.862C143.931 276.862 143.158 276.508 143.047 275.845C141.876 273.28 136.706 271.488 136.706 271.488L135.491 274.894L130.1 277.393Z" fill="#C94540"/>
<path fill-rule="evenodd" clip-rule="evenodd" d="M130.1 276.066C130.1 276.066 129.857 281.197 134.364 281.197C142.163 281.197 147.422 281.197 147.422 281.197L146.494 273.678C145.765 273.346 145.411 273.213 145.411 273.213C145.411 273.213 145.146 271.621 145.013 270.958C143.842 268.392 136.11 270.161 136.11 270.161L134.894 273.567L130.1 276.066Z" fill="#020203"/>
<path fill-rule="evenodd" clip-rule="evenodd" d="M171.195 258.551L172.498 274.717L181.955 276.664L183.28 275.248L181.778 257.069L171.195 258.551Z" fill="#F9C19E"/>
<path fill-rule="evenodd" clip-rule="evenodd" d="M173.426 280.578L180.872 278.897C180.982 278.632 181.115 278.344 181.225 278.057C178.861 277.261 187.633 277.703 188.362 277.239C188.472 276.796 202.701 278.941 202.789 278.521L183.346 273.368L182.905 270.449C182.175 270.626 179.568 270.847 177.337 270.847C174.487 270.847 172.167 270.648 172.167 270.383C172.123 274.275 172.101 279.096 172.101 279.096C172.476 279.693 172.565 280.18 173.426 280.578Z" fill="white"/>
<path fill-rule="evenodd" clip-rule="evenodd" d="M203.275 278.057C203.275 278.057 202.634 282.789 197.862 282.789C190.063 282.789 171.128 282.789 171.128 282.789L171.482 280.335C171.482 280.335 173.758 277.526 174.199 277.703C175.746 278.322 176.696 278.941 176.696 278.941C176.696 278.941 176.939 278.366 180.783 277.039L182.264 276.464C182.264 276.464 188.87 278.831 192.736 278.366C199.387 277.57 202.524 277.769 203.275 278.057Z" fill="#C94540"/>
<path fill-rule="evenodd" clip-rule="evenodd" d="M203.275 277.968C203.275 277.968 201.331 281.197 198.039 281.197C190.239 281.197 171.349 281.197 171.349 281.197L171.681 273.678C175.525 273.413 178.154 275.315 182.087 275.779C182.065 274.762 182.153 273.413 182.639 272.395C183.545 270.515 184.915 270.162 184.915 270.162L186.152 274.164L203.275 277.968Z" fill="#020203"/>
<path fill-rule="evenodd" clip-rule="evenodd" d="M177.58 163.765L184.053 269.034L171.924 269.144C171.924 269.144 163.904 255.61 164.964 228.983C165.494 215.493 162.556 196.65 160.015 182.474L146.14 270.051L135.358 270.007C135.358 270.007 128.973 247.869 136.109 224.427C141.942 205.275 138.805 178.228 141.014 164.251H140.992L141.103 160.116L177.558 159.961V163.765H177.58Z" fill="#C94540"/>
<path d="M150.117 166.197C149.542 167.812 148.703 170.244 147.687 172.743C146.803 174.933 143.599 174.977 143.599 174.977" stroke="#010202" stroke-width="2" stroke-miterlimit="10" stroke-linecap="round"/>
<path d="M163.97 168.807L160.324 182.629" stroke="#010202" stroke-width="2" stroke-miterlimit="10" stroke-linecap="round"/>
<path d="M175.613 268.879C175.613 268.879 168.455 251.474 170.068 226.705C171.217 208.924 165.605 185.128 162.688 173.694" stroke="#010202" stroke-width="2" stroke-miterlimit="10" stroke-linecap="round"/>
<path d="M137.767 215.714C142.097 196.805 142.892 177.432 144.174 165.269" stroke="#010202" stroke-width="2" stroke-miterlimit="10" stroke-linecap="round"/>
<path fill-rule="evenodd" clip-rule="evenodd" d="M177.668 165.357C175.039 165.976 169.692 166.772 159.419 166.772C147.952 166.772 142.782 165.003 140.992 164.162V163.654C142.495 164.384 147.598 166.33 159.419 166.33C169.737 166.33 175.083 165.512 177.646 164.914L177.668 165.357Z" fill="#020203"/>
<path fill-rule="evenodd" clip-rule="evenodd" d="M166.113 107.99C166.113 107.99 167.262 108.211 168.345 109.56C169.361 110.842 170.311 113.518 170.311 113.518C176.453 113.541 182.153 117.986 184.606 123.625L189.621 136.828C189.621 136.828 187.544 136.297 182.617 137.757C181.247 138.155 179.281 154.896 178.265 155.361L178.088 161.221C178.088 161.221 171.99 163.72 156.281 163.123C144.483 162.637 141.103 160.116 141.103 160.116L141.522 132.892L137.104 135.169L130.608 122.564L146.383 114.425C147.444 113.894 148.681 113.607 150.073 113.607H153.674C153.873 112.545 155.397 109.803 157.496 109.051C157.541 109.029 159.971 107.945 166.113 107.99Z" fill="#F28E22"/>
<path fill-rule="evenodd" clip-rule="evenodd" d="M168.941 116.748L166.069 118.848L165.119 117.566C165.03 118.251 164.964 119.092 164.92 120.043C164.699 128.225 164.08 159.74 164.014 163.146C162.931 163.168 161.782 163.19 160.567 163.19C160.611 160.448 161.274 128.248 161.473 119.954C161.539 117.035 161.981 115.111 162.445 113.895L161.981 113.253L163.174 112.369C163.263 112.236 163.329 112.148 163.373 112.103L163.44 112.17L164.831 111.152L168.941 116.748ZM136.374 133.71L134.938 130.924C136.728 130.083 138.584 129.176 140.462 128.292L141.08 131.344C139.49 132.14 137.899 132.936 136.374 133.71ZM131.514 124.267C134.717 122.697 138.385 120.905 141.964 119.202V122.741C138.849 124.311 135.778 125.837 133.016 127.23L131.514 124.267ZM146.692 119.18C146.759 116.902 147.046 115.222 147.377 114.027C148.217 113.74 149.123 113.585 150.117 113.585H151.155L151.199 113.607L151.222 113.585C151.089 113.806 150.249 115.31 150.139 119.269C149.918 127.54 149.277 159.718 149.233 162.482C147.907 162.283 146.759 162.062 145.786 161.841C145.875 156.688 146.471 127.075 146.692 119.18ZM158.756 114.337C158.756 114.359 157.761 115.752 157.651 120.043C157.43 128.203 156.811 159.541 156.745 163.101C156.59 163.101 156.436 163.101 156.281 163.079C155.221 163.035 154.226 162.991 153.298 162.902C153.387 158.789 154.005 128.004 154.204 119.932C154.359 114.381 155.817 112.435 156.104 112.103L158.711 114.381C158.689 114.403 158.711 114.381 158.756 114.337ZM173.492 114.403C173.492 114.403 173.514 114.381 173.537 114.337C173.537 114.359 172.542 115.752 172.432 120.043C172.233 127.894 171.636 157.197 171.526 162.593C170.51 162.725 169.361 162.836 168.057 162.947C168.146 158.899 168.764 128.048 168.963 119.954C169.051 116.46 169.67 114.403 170.178 113.275C170.244 113.43 170.267 113.519 170.267 113.519C171.106 113.519 171.924 113.607 172.719 113.762L173.492 114.403ZM186.218 135.192L183.103 136.43L179.789 128.093C179.634 135.125 179.436 144.569 179.281 151.933C178.883 153.857 178.53 155.228 178.265 155.361L178.088 161.222C178.088 161.222 177.315 161.531 175.635 161.907C175.768 155.184 176.32 127.562 176.519 119.976C176.563 118.008 176.784 116.504 177.049 115.354C178.154 115.973 179.193 116.703 180.143 117.544C180.054 118.163 179.988 118.871 179.966 119.711L180.032 119.689L186.218 135.192Z" fill="#F07F23"/>
<path fill-rule="evenodd" clip-rule="evenodd" d="M179.988 131.631H179.966C179.855 131.631 179.767 131.542 179.745 131.432C179.723 131.321 179.811 131.21 179.944 131.188C179.988 131.188 183.147 130.746 186.329 128.159L186.483 128.601C183.236 131.188 180.12 131.609 179.988 131.631ZM179.612 129.353C179.502 129.353 179.413 129.286 179.391 129.176C179.369 129.065 179.458 128.933 179.568 128.91C179.59 128.91 182.507 128.38 185.467 125.903L185.644 126.345C182.639 128.8 179.789 129.331 179.656 129.353C179.634 129.353 179.612 129.353 179.612 129.353ZM179.966 123.227C179.944 123.227 179.922 123.227 179.899 123.205C179.877 123.249 179.855 123.271 179.811 123.293C179.656 123.382 175.856 125.416 159.308 125.416C149.542 125.416 144.35 124.134 141.92 123.227V122.74C144.24 123.603 149.432 124.974 159.308 124.974C175.635 124.974 179.524 122.917 179.568 122.895C179.634 122.851 179.701 122.851 179.767 122.873C179.789 122.807 179.855 122.762 179.944 122.74C179.966 122.74 181.512 122.519 183.545 121.524C183.633 121.657 183.7 121.789 183.766 121.922C181.689 122.961 180.098 123.183 180.01 123.205C179.988 123.227 179.966 123.227 179.966 123.227ZM159.308 123.006C149.542 123.006 144.35 121.723 141.92 120.816V120.33C144.24 121.192 149.432 122.563 159.308 122.563C175.635 122.563 179.524 120.507 179.568 120.485C179.634 120.462 179.701 120.44 179.745 120.462C180.12 120.374 181.004 120.131 182.153 119.6C182.241 119.71 182.352 119.843 182.44 119.954C180.96 120.661 179.877 120.883 179.678 120.927C178.861 121.303 174.354 123.006 159.308 123.006ZM168.941 116.393C172.918 116.106 175.459 115.685 177.049 115.332C177.248 115.442 177.425 115.553 177.624 115.663C176.011 116.061 173.205 116.57 168.543 116.88C168.698 116.703 168.83 116.548 168.941 116.393ZM170.289 113.85C170.996 113.784 171.658 113.717 172.255 113.651C172.719 113.717 173.183 113.828 173.647 113.938C172.631 114.071 171.482 114.204 170.134 114.314C170.2 114.16 170.244 114.005 170.289 113.85ZM147.598 113.938C148.018 113.806 148.438 113.717 148.879 113.673C150.271 113.85 151.862 114.005 153.652 114.115C153.585 114.27 153.541 114.403 153.475 114.558C151.199 114.425 149.233 114.204 147.598 113.938ZM152.945 116.946C148.924 116.681 146.029 116.172 143.997 115.663L144.615 115.332C146.582 115.796 149.321 116.26 152.989 116.504C152.967 116.659 152.967 116.813 152.945 116.946ZM179.016 129.11C179.126 129.043 179.281 129.087 179.347 129.176C179.413 129.286 179.369 129.419 179.259 129.485C179.104 129.574 175.304 131.609 158.755 131.609C148.946 131.609 143.754 130.304 141.323 129.419V128.933C143.621 129.795 148.813 131.166 158.755 131.166C175.083 131.188 178.971 129.132 179.016 129.11ZM138.075 122.74C137.523 120.993 137.346 119.688 137.302 119.113L137.722 118.892C137.766 119.644 138.142 123.647 141.323 128.446C141.257 128.623 141.213 128.8 141.169 128.999C139.512 126.544 138.584 124.333 138.075 122.74ZM141.301 132.869C141.257 132.913 141.213 132.913 141.147 132.913C141.08 132.913 141.014 132.891 140.992 132.847C137.921 129.353 136.44 126.035 135.756 123.846C135.225 122.165 135.049 120.927 135.004 120.308L135.424 120.086C135.513 121.214 136.153 126.699 141.323 132.56C141.39 132.648 141.39 132.781 141.301 132.869ZM158.755 159.673C171.128 159.673 176.342 158.501 178.176 157.926L178.154 158.412C176.121 159.032 170.841 160.137 158.755 160.137C148.703 160.137 143.488 158.766 141.147 157.882V157.395C143.356 158.235 148.548 159.673 158.755 159.673ZM141.191 155.427V154.94C143.4 155.803 148.592 157.24 158.755 157.24C171.283 157.24 176.497 156.024 178.242 155.471L178.22 155.958C176.254 156.577 170.996 157.705 158.733 157.705C148.747 157.683 143.533 156.334 141.191 155.427ZM179.259 146.846C179.104 146.935 175.304 148.969 158.755 148.969C148.924 148.969 143.732 147.664 141.323 146.758V146.271C143.621 147.134 148.813 148.527 158.755 148.527C175.083 148.527 178.971 146.47 179.016 146.448C179.126 146.382 179.281 146.426 179.347 146.514C179.391 146.669 179.369 146.802 179.259 146.846ZM179.259 140.654C179.104 140.742 175.304 142.777 158.755 142.777C149.056 142.777 143.864 141.516 141.412 140.61V140.123C143.754 140.985 148.924 142.335 158.755 142.335C175.083 142.335 178.971 140.278 179.016 140.256C179.126 140.189 179.281 140.234 179.347 140.322C179.391 140.477 179.369 140.61 179.259 140.654ZM179.259 131.918C179.104 132.007 175.304 134.041 158.755 134.041C148.946 134.041 143.754 132.736 141.323 131.852V131.365C143.621 132.228 148.813 133.599 158.755 133.599C175.083 133.599 178.971 131.542 179.016 131.52C179.126 131.454 179.281 131.498 179.347 131.586C179.391 131.741 179.369 131.874 179.259 131.918ZM179.259 138.221C179.104 138.31 175.304 140.344 158.755 140.344C149.1 140.344 143.93 139.084 141.456 138.199V137.712C143.798 138.575 148.99 139.902 158.755 139.902C175.083 139.902 178.971 137.845 179.016 137.823C179.126 137.757 179.281 137.801 179.347 137.889C179.391 138.044 179.369 138.177 179.259 138.221ZM141.279 149.212V148.726C143.555 149.588 148.747 150.982 158.755 150.982C175.083 150.982 178.971 148.925 179.016 148.903C179.126 148.836 179.281 148.881 179.347 148.969C179.413 149.08 179.369 149.212 179.259 149.279C179.104 149.367 175.304 151.402 158.755 151.402C148.879 151.424 143.687 150.097 141.279 149.212Z" fill="#EE7626"/>
<path d="M141.81 119.047C141.81 119.047 141.766 129.353 141.544 136.519" stroke="#010202" stroke-width="2" stroke-miterlimit="10" stroke-linecap="round"/>
<path d="M152.967 118.295C152.79 117.123 153.078 115 153.74 113.74M170.223 113.364C170.399 115 168.256 117.765 165.737 118.871L170.223 113.364Z" stroke="#010202" stroke-width="2" stroke-miterlimit="10" stroke-linecap="round"/>
<path fill-rule="evenodd" clip-rule="evenodd" d="M160.612 108.52C157.32 109.449 155.044 111.683 155.508 113.519C155.972 115.354 158.999 116.084 162.291 115.133C165.583 114.204 167.858 111.97 167.394 110.135C166.93 108.321 163.904 107.592 160.612 108.52Z" fill="#0A0A09"/>
<path fill-rule="evenodd" clip-rule="evenodd" d="M160.324 117.654C160.479 117.632 160.744 115.332 162.269 114.691C163.351 114.226 164.677 116.703 165.737 119.092L160.324 117.654ZM157.408 115.111C158.137 115.708 158.38 117.588 158.38 117.588L152.923 118.583C155.199 114.647 156.723 114.536 157.408 115.111Z" fill="#020203"/>
<path d="M159.131 121.259C159.109 121.259 159.087 121.259 159.065 121.259C158.955 121.237 158.866 121.104 158.911 120.994C159.065 120.397 160.479 115.177 162.203 114.691C162.313 114.647 162.446 114.735 162.468 114.846C162.512 114.956 162.423 115.089 162.313 115.111C161.054 115.465 159.728 119.556 159.33 121.104C159.33 121.193 159.242 121.259 159.131 121.259Z" fill="#010202"/>
<path d="M159.131 121.259C159.021 121.259 158.932 121.193 158.91 121.082C158.314 118.34 157.518 115.354 157.231 115.089C156.369 114.492 154.271 116.814 153.166 118.406C153.1 118.517 152.967 118.539 152.857 118.45C152.746 118.384 152.724 118.251 152.812 118.141C153.144 117.676 155.994 113.651 157.496 114.713C158.049 115.089 159.065 119.6 159.352 120.971C159.374 121.082 159.308 121.215 159.175 121.237C159.175 121.259 159.153 121.259 159.131 121.259Z" fill="#010202"/>
<path d="M180.01 127.031L179.37 140.986" stroke="#010202" stroke-width="2" stroke-miterlimit="10" stroke-linecap="round"/>
<path fill-rule="evenodd" clip-rule="evenodd" d="M179.347 139.416C178.994 139.084 179.06 137.934 179.06 137.934L179.657 128.734C179.657 128.734 180.121 132.98 181.093 134.462C181.8 135.523 182.33 137.27 182.264 138.199C181.093 138.575 180.054 138.863 179.347 139.416Z" fill="#020203"/>
<path fill-rule="evenodd" clip-rule="evenodd" d="M141.765 124.067C141.765 124.067 141.368 126.987 140.462 128.114C137.258 132.095 138.208 134.55 138.208 134.55L141.655 133.09L141.765 124.067Z" fill="#020203"/>
<path fill-rule="evenodd" clip-rule="evenodd" d="M167.328 96.0248C167.173 96.0248 167.019 96.047 166.886 96.0912L166.908 92.5085C164.61 83.8835 155.552 86.6922 154.491 89.4787C154.491 89.4787 154.491 94.8306 154.469 100.669C154.469 100.713 154.469 100.78 154.469 100.824C154.469 100.868 154.469 100.912 154.469 100.957V100.979C154.536 102.505 155.375 103.876 156.679 104.738V114.624C156.966 114.558 157.253 114.602 157.496 114.779C157.96 115.088 158.755 118.339 159.175 120.175C159.683 118.516 160.854 115.11 162.224 114.712C162.246 114.712 162.578 114.513 162.931 114.403C165.45 113.54 166.069 112.28 166.069 112.28L166.157 98.8777C166.29 98.922 167.173 98.9441 167.328 98.9441C168.123 98.9441 168.764 98.3027 168.764 97.4845C168.764 96.6662 168.123 96.0248 167.328 96.0248Z" fill="#F9C19E"/>
<path d="M166.621 97.8164C166.533 97.8164 166.467 97.7721 166.422 97.6837C166.356 97.5731 166.422 97.4404 166.533 97.3741L167.461 96.9317C167.571 96.8654 167.704 96.9317 167.77 97.0423C167.836 97.1529 167.77 97.2856 167.66 97.3519L166.732 97.7942C166.71 97.8164 166.665 97.8164 166.621 97.8164Z" fill="#0A0A09"/>
<path fill-rule="evenodd" clip-rule="evenodd" d="M165.229 102.218C164.765 106.774 160.7 109.184 156.679 109.184V104.717C157.828 105.469 159.021 105.69 159.971 105.69C162.445 105.69 164.544 104.23 165.229 102.218Z" fill="#010202"/>
<path fill-rule="evenodd" clip-rule="evenodd" d="M154.514 94.4107V91.2924C154.514 91.2924 155.243 91.4472 156.126 91.1155C157.01 90.7838 157.496 89.7443 157.496 89.7443C157.496 89.7443 159.264 90.8722 161.252 91.0713C163.241 91.2703 164.699 91.0492 164.699 91.0492C164.699 91.0492 166.135 91.6905 165.45 94.477C164.677 97.5732 165.958 98.104 165.958 98.104C165.958 98.104 165.892 96.6886 166.997 96.2905C167.704 96.0472 168.256 96.2684 168.256 96.2684C168.256 96.2684 170.841 95.6492 171.04 92.5751C171.261 88.9924 168.477 87.4886 168.477 87.4886C168.477 87.4886 168.786 85.5424 167.483 83.8617C165.87 81.7828 161.517 82.2472 159.286 84.9674C158.159 86.3386 156.436 87.3338 154.293 87.4665C152.017 87.5992 150.979 87.7318 150.912 89.1472C150.868 90.4742 153.033 90.9607 153.033 90.9607C153.033 90.9607 152.79 93.1059 154.514 94.4107Z" fill="#C9453F"/>
<path d="M157.761 99.4752H157.783L160.081 99.254C160.214 99.2319 160.302 99.1213 160.28 99.0107C160.258 98.8781 160.147 98.7896 160.037 98.8117L158.049 99.0107L158.91 95.0079C158.932 94.8752 158.866 94.7646 158.733 94.7425C158.601 94.7204 158.49 94.7867 158.468 94.9194L157.54 99.2319C157.518 99.2982 157.54 99.3867 157.585 99.4309C157.629 99.4531 157.695 99.4752 157.761 99.4752Z" fill="#020203"/>
<path d="M157.784 100.846C157.784 100.846 159.706 101.333 160.921 100.006" stroke="#010202" stroke-width="2" stroke-miterlimit="10" stroke-linecap="round"/>
<path d="M157.585 93.3271L155 93.681" stroke="#010202" stroke-width="2" stroke-miterlimit="10" stroke-linecap="round"/>
<path d="M160.324 93.3716L163.241 93.7254" stroke="#010202" stroke-width="2" stroke-miterlimit="10" stroke-linecap="round"/>
<path fill-rule="evenodd" clip-rule="evenodd" d="M156.06 95.2065C156.37 95.2065 156.635 95.4719 156.635 95.7815C156.635 96.0912 156.37 96.3565 156.06 96.3565C155.751 96.3565 155.486 96.0912 155.486 95.7815C155.486 95.4719 155.729 95.2065 156.06 95.2065Z" fill="#020203"/>
<path fill-rule="evenodd" clip-rule="evenodd" d="M161.694 95.2065C162.003 95.2065 162.269 95.4719 162.269 95.7815C162.269 96.0912 162.003 96.3565 161.694 96.3565C161.385 96.3565 161.12 96.0912 161.12 95.7815C161.12 95.4719 161.385 95.2065 161.694 95.2065Z" fill="#020203"/>
<path fill-rule="evenodd" clip-rule="evenodd" d="M189.069 143.042C193.907 143.042 197.818 146.249 197.818 150.207C197.818 154.166 193.907 157.373 189.069 157.373C184.23 157.373 180.319 154.166 180.319 150.207C180.319 146.249 184.23 143.042 189.069 143.042Z" fill="#F9C19E"/>
<path fill-rule="evenodd" clip-rule="evenodd" d="M177.735 211.113C177.735 211.113 175.105 220.092 195.366 216.554C212.842 213.502 228.352 215.536 230.584 217.637C223.469 210.494 182.971 197.667 177.735 211.113Z" fill="#D2C2B6"/>
<path fill-rule="evenodd" clip-rule="evenodd" d="M214.698 184.044L187.389 271.931C187.389 271.931 184.252 273.656 181.932 273.235C180.032 272.904 178.905 270.405 178.905 270.405C178.905 270.405 184.539 231.636 192.471 218.279C198.569 208.017 196.824 195.478 199.121 185.039C203.606 164.782 214.698 184.044 214.698 184.044Z" fill="#F49A67"/>
<path fill-rule="evenodd" clip-rule="evenodd" d="M189.201 225.488C189.665 226.174 190.947 227.346 194.526 228.695C197.707 229.889 199.585 229.867 200.513 229.712L187.389 271.953C187.389 271.953 185.931 272.749 184.274 273.125L179.259 268.149C180.363 261.094 184.075 239.222 189.201 225.488Z" fill="white"/>
<path fill-rule="evenodd" clip-rule="evenodd" d="M188.141 228.474C188.781 229.182 190.151 230.199 193.178 231.327C197.199 232.831 199.143 232.411 199.718 232.212L187.367 271.931C187.367 271.931 185.909 272.727 184.252 273.103L179.524 266.358C180.827 258.573 183.943 241.124 188.141 228.474Z" fill="#5665AC"/>
<path fill-rule="evenodd" clip-rule="evenodd" d="M190.549 281.706L175.746 272.417L178.618 268.37L181.844 252.403L193.775 255.012L188.737 272.329L195.388 278.632C195.388 278.632 195.984 278.698 198.856 278.986C200.646 279.162 200.491 281.462 200.491 281.462L190.549 281.706Z" fill="#F28E22"/>
<path fill-rule="evenodd" clip-rule="evenodd" d="M190.549 281.706L188.207 280.246C188.671 279.163 189.842 278.168 192.736 278.897C196.978 279.959 197.796 279.362 197.906 278.897C198.194 278.919 198.525 278.964 198.879 279.008C200.668 279.185 200.513 281.485 200.513 281.485L190.549 281.706ZM189.003 262.598C190.24 258.396 190.991 255.831 191.389 254.482L193.797 255.013L188.804 272.174C186.683 271.356 186.992 269.476 189.003 262.598ZM175.746 272.418L178.618 268.37L178.685 267.994C179.369 268.746 179.789 269.786 179.789 270.936C179.789 272.218 179.259 273.368 178.442 274.12L175.746 272.418Z" fill="#CA4440"/>
<path fill-rule="evenodd" clip-rule="evenodd" d="M200.491 282.79H191.3C190.461 282.79 189.665 282.524 188.98 282.038L175.127 273.236L176.122 271.887C176.122 271.887 185.291 277.504 190.527 281.242H200.513V282.79H200.491Z" fill="#0A0A09"/>
<path fill-rule="evenodd" clip-rule="evenodd" d="M189.93 255.676C190.284 255.676 190.593 255.963 190.593 256.339C190.593 256.693 190.306 257.003 189.93 257.003C189.577 257.003 189.268 256.715 189.268 256.339C189.268 255.963 189.555 255.676 189.93 255.676Z" fill="#0A0A09"/>
<path fill-rule="evenodd" clip-rule="evenodd" d="M188.825 259.812C189.179 259.812 189.488 260.099 189.488 260.475C189.488 260.829 189.201 261.138 188.825 261.138C188.472 261.138 188.163 260.851 188.163 260.475C188.163 260.099 188.45 259.812 188.825 259.812Z" fill="#0A0A09"/>
<path fill-rule="evenodd" clip-rule="evenodd" d="M187.566 264.014C187.92 264.014 188.229 264.301 188.229 264.677C188.229 265.031 187.942 265.341 187.566 265.341C187.213 265.341 186.903 265.053 186.903 264.677C186.903 264.301 187.191 264.014 187.566 264.014Z" fill="#0A0A09"/>
<path fill-rule="evenodd" clip-rule="evenodd" d="M186.462 268.215C186.815 268.215 187.124 268.503 187.124 268.879C187.124 269.233 186.837 269.542 186.462 269.542C186.108 269.542 185.799 269.255 185.799 268.879C185.799 268.503 186.086 268.215 186.462 268.215Z" fill="#0A0A09"/>
<path d="M193.598 257.047L190.284 256.339L192.869 259.214L189.157 260.541L191.698 263.394L187.986 264.721V264.743L190.527 267.596L186.793 269.011" stroke="#010202" stroke-width="2" stroke-miterlimit="10" stroke-linecap="round" stroke-linejoin="round"/>
<path fill-rule="evenodd" clip-rule="evenodd" d="M204.954 215.382C202.458 215.537 196.183 216.023 193.001 217.372C194.349 214.873 195.277 212.242 195.94 209.543L206.192 211.423L204.954 215.382Z" fill="#0A0A09"/>
<path fill-rule="evenodd" clip-rule="evenodd" d="M229.435 178.206L227.91 198.53L218.476 273.302C218.476 273.302 217.769 277.836 215.339 279.539C212.82 281.308 208.556 280.246 208.556 280.246C208.556 280.246 209.749 274.717 209.749 271.466C209.705 263.881 209.307 232.366 214.101 219.628C218.299 208.46 214.388 196.429 214.83 185.747C215.714 164.959 229.435 178.206 229.435 178.206Z" fill="#F49A67"/>
<path fill-rule="evenodd" clip-rule="evenodd" d="M218.498 273.302C218.498 273.302 217.791 277.835 215.36 279.538C212.842 281.307 208.578 280.246 208.578 280.246C208.578 280.246 209.771 274.717 209.771 271.466C209.749 265.937 209.528 247.781 211.251 233.361C211.87 233.848 213.505 234.666 217.526 234.755C221.282 234.843 223.027 234.091 223.491 233.826L218.498 273.302Z" fill="white"/>
<path fill-rule="evenodd" clip-rule="evenodd" d="M218.498 273.413C218.498 273.413 217.791 277.946 215.36 279.649C212.842 281.418 208.578 280.357 208.578 280.357C208.578 280.357 209.771 274.828 209.771 271.577C209.749 266.424 209.55 250.302 210.92 236.48C211.45 236.944 213.019 237.873 217.283 237.962C220.663 238.05 222.408 237.431 223.071 237.121L218.498 273.413Z" fill="#5665AC"/>
<path fill-rule="evenodd" clip-rule="evenodd" d="M208.003 281.263L209.02 276.022L209.174 259.812H221.017L219.868 275.646C222.055 276.509 227.004 278.234 232.196 278.698C234.914 278.941 235.621 281.263 235.621 281.263H208.003Z" fill="#F28E22"/>
<path fill-rule="evenodd" clip-rule="evenodd" d="M223.292 281.264C223.58 280.202 224.817 279.295 228.087 279.295C230.363 279.295 231.467 279.03 231.953 278.676C232.042 278.676 232.108 278.698 232.196 278.698C234.914 278.941 235.621 281.264 235.621 281.264H223.292ZM219.868 275.646C217.46 275.292 217.747 272.992 217.879 266.468C217.946 263.063 217.99 261.006 218.012 259.79H220.995L219.868 275.646ZM208.003 281.264L208.976 276.199C209.771 276.597 210.456 277.283 210.898 278.19C211.384 279.207 211.472 280.313 211.207 281.264H208.003Z" fill="#CA4440"/>
<path fill-rule="evenodd" clip-rule="evenodd" d="M208.003 281.264H235.621V282.812H208.003V281.264Z" fill="#0A0A09"/>
<path fill-rule="evenodd" clip-rule="evenodd" d="M217.283 260.364C217.636 260.364 217.946 260.652 217.946 261.028C217.946 261.382 217.659 261.691 217.283 261.691C216.907 261.691 216.62 261.404 216.62 261.028C216.62 260.652 216.929 260.364 217.283 260.364Z" fill="#0A0A09"/>
<path fill-rule="evenodd" clip-rule="evenodd" d="M217.106 264.566C217.46 264.566 217.769 264.854 217.769 265.23C217.769 265.584 217.482 265.893 217.106 265.893C216.731 265.893 216.443 265.606 216.443 265.23C216.443 264.854 216.753 264.566 217.106 264.566Z" fill="#0A0A09"/>
<path fill-rule="evenodd" clip-rule="evenodd" d="M216.929 268.857C217.283 268.857 217.592 269.144 217.592 269.52C217.592 269.874 217.305 270.184 216.929 270.184C216.554 270.184 216.267 269.896 216.267 269.52C216.267 269.167 216.554 268.857 216.929 268.857Z" fill="#0A0A09"/>
<path fill-rule="evenodd" clip-rule="evenodd" d="M216.929 273.28C217.283 273.28 217.592 273.567 217.592 273.943C217.592 274.297 217.305 274.607 216.929 274.607C216.554 274.607 216.267 274.319 216.267 273.943C216.267 273.589 216.554 273.28 216.929 273.28Z" fill="#0A0A09"/>
<path d="M221.039 261.072L217.636 260.961L220.752 263.35L217.393 265.296L220.464 267.685L217.106 269.631V269.653L220.177 272.041L216.819 274.076" stroke="#010202" stroke-width="2" stroke-miterlimit="10" stroke-linecap="round" stroke-linejoin="round"/>
<path fill-rule="evenodd" clip-rule="evenodd" d="M225.148 220.623C222.696 220.8 216.355 221.353 213.151 222.746C213.461 221.618 213.77 220.556 214.124 219.605C214.72 218.013 215.162 216.399 215.471 214.784L225.657 216.531L225.148 220.623Z" fill="#0A0A09"/>
<path fill-rule="evenodd" clip-rule="evenodd" d="M234.781 216.2C234.781 216.2 227.844 223.808 201.684 212.551C191.3 208.083 184.716 207.619 181.269 208.526C179.502 208.99 178.618 209.764 178.176 210.383C180.916 204.523 195.277 168.187 195.277 168.187L201.265 120.352C201.265 120.352 205.948 118.87 210.411 117.985C216.067 116.858 223.005 120.838 223.005 120.838L228.418 145.961C228.418 145.961 231.887 173.738 232.594 183.911C233.853 201.935 234.781 216.2 234.781 216.2ZM178.176 210.383C177.889 210.981 177.734 211.312 177.734 211.312C177.734 211.312 177.801 210.914 178.176 210.383Z" fill="white"/>
<path d="M225.745 137.425C225.745 137.425 218.896 140.941 206.567 140.233" stroke="#010202" stroke-width="2" stroke-miterlimit="10" stroke-linecap="round"/>
<path fill-rule="evenodd" clip-rule="evenodd" d="M215.67 127.761C216.024 127.739 216.311 127.982 216.333 128.336C216.355 128.69 216.09 128.999 215.736 129.021C215.383 129.043 215.096 128.8 215.074 128.446C215.051 128.092 215.317 127.783 215.67 127.761Z" fill="#0A0A09"/>
<path fill-rule="evenodd" clip-rule="evenodd" d="M214.19 124.775C214.543 124.753 214.83 124.996 214.852 125.35C214.875 125.704 214.609 126.013 214.256 126.035C213.902 126.058 213.615 125.814 213.593 125.46C213.571 125.107 213.836 124.797 214.19 124.775Z" fill="#0A0A09"/>
<path d="M214.146 122.431C214.146 122.431 217.349 126.456 218.189 132.073" stroke="#010202" stroke-width="2" stroke-miterlimit="10" stroke-linecap="round"/>
<path d="M211.892 122.961C211.119 122.961 210.191 122.873 209.086 122.674C208.975 122.652 208.887 122.541 208.909 122.409C208.931 122.298 209.042 122.21 209.174 122.232C215.007 123.36 215.604 120.883 215.604 120.861C215.626 120.75 215.736 120.661 215.869 120.684C216.001 120.706 216.068 120.816 216.046 120.949C216.001 121.037 215.559 122.961 211.892 122.961Z" fill="#010202"/>
<path fill-rule="evenodd" clip-rule="evenodd" d="M232.417 184.42C231.931 180.174 231.533 172.876 231.202 169.935C231.003 164.162 232.66 162.57 233.544 167.59C235.157 176.702 233.699 182.607 232.417 184.42Z" fill="#0A0A09"/>
<path fill-rule="evenodd" clip-rule="evenodd" d="M223.336 133.289C225.391 145.63 230.428 158.479 231.843 178.073C233.013 176.016 238.647 169.36 231.82 153.127C234.184 155.095 236.394 156.157 239.531 155.935C244.259 155.626 247.728 151.512 247.463 146.271C247.463 146.271 247.043 140.433 246.513 140.167C246.38 138.088 246.292 135.987 246.292 135.987L237.256 136.784C235.753 136.916 234.56 135.258 233.433 133.488C231.047 129.751 227.6 122.541 224.883 120.462C222.673 118.782 219.89 119.003 219.89 119.003C220.486 119.998 221.856 124.465 223.336 133.289Z" fill="#CA4440"/>
<path fill-rule="evenodd" clip-rule="evenodd" d="M215.316 115.11L215.626 121.082C215.626 121.082 222.121 123.691 222.409 128.291C222.453 125.858 222.541 117.831 215.316 115.11Z" fill="#0A0A09"/>
<path fill-rule="evenodd" clip-rule="evenodd" d="M241.277 135.346C244.06 135.103 246.336 135.39 246.38 135.965C246.402 136.562 244.171 137.226 241.387 137.491C238.603 137.757 236.328 137.447 236.283 136.872C236.261 136.275 238.493 135.589 241.277 135.346Z" fill="#0A0A09"/>
<path fill-rule="evenodd" clip-rule="evenodd" d="M236.792 127.739C236.947 129.64 238.051 130.503 238.051 130.503C238.051 130.503 237.455 135.28 237.3 136.629C237.3 137.115 239.068 137.248 241.365 137.049C243.619 136.85 245.121 136.364 245.387 135.877C245.387 135.877 245.32 134.24 245.32 130.813C245.32 129.95 250.822 118.185 251.396 116.57C251.971 114.956 250.998 114.425 249.54 116.968C248.436 118.87 246.933 121.148 246.933 121.148C246.933 121.148 248.833 114.115 249.12 112.678C249.275 111.815 248.855 111.55 248.502 111.594C248.259 111.616 248.038 111.904 248.038 111.904C248.038 111.904 248.082 111.484 248.104 111.019C248.126 110.312 247.132 110.09 246.712 110.975C245.961 112.523 243.177 119.246 243.177 119.246C243.177 119.246 243.95 115.398 244.525 112.501C244.923 110.533 243.729 110.555 242.978 112.722C242.426 114.315 240.15 120.839 240.15 120.839C240.15 120.839 238.736 124.709 238.029 119.799C237.676 117.3 236.505 116.725 236.372 117.632C236.173 118.561 236.615 125.815 236.792 127.739Z" fill="#F49A66"/>
<path d="M246.999 122.453C246.999 122.453 244.812 120.153 241.962 119.976" stroke="#010202" stroke-width="2" stroke-miterlimit="10" stroke-linecap="round"/>
<path d="M239.001 122.696C239.001 122.696 242.315 124.266 241.696 127.893" stroke="#010202" stroke-width="2" stroke-miterlimit="10" stroke-linecap="round"/>
<path d="M247.352 113.12L244.701 120.551" stroke="#010202" stroke-width="2" stroke-miterlimit="10" stroke-linecap="round"/>
<path d="M236.262 141.339C236.284 141.936 238.692 142.202 241.476 141.958C244.26 141.715 246.491 141.03 246.469 140.455" stroke="#010202" stroke-width="2" stroke-miterlimit="10" stroke-linecap="round"/>
<path d="M236.526 136.784C236.526 136.784 236.416 139.017 236.239 141.251C235.002 141.715 234.958 142.578 234.781 145.143C234.671 146.669 234.56 148.018 234.56 148.018" stroke="#010202" stroke-width="2" stroke-miterlimit="10" stroke-linecap="round"/>
<path d="M225.391 124.487C225.391 124.487 227.998 127.517 228.042 132.183" stroke="#010202" stroke-width="2" stroke-miterlimit="10" stroke-linecap="round"/>
<path fill-rule="evenodd" clip-rule="evenodd" d="M227.159 135.899C227.645 143.573 230.915 151.49 231.842 153.215C232.594 152.132 233.19 150.384 233.367 148.261C233.61 145.232 232.351 141.516 230.451 138.796C229.412 137.314 229.39 129.972 226.739 126.61C226.739 126.61 228.838 130.237 227.159 135.899Z" fill="#0A0A09"/>
<path fill-rule="evenodd" clip-rule="evenodd" d="M214.322 94.0125C213.505 94.0789 212.554 94.4106 211.604 94.8971C208.887 94.1673 206.015 94.9414 205.241 99.7846C205.065 100.913 202.833 101.045 202.922 101.996C203.142 104.23 204.336 106.021 205.86 107.392L206.479 119.246C206.479 119.246 207.097 121.48 208.997 122.276C209.042 122.254 209.086 122.232 209.152 122.254C213.725 123.138 215.073 121.812 215.449 121.17C215.714 120.463 215.559 119.777 215.559 119.777L215.095 110.754C217.504 109.582 218.542 106.419 218.52 102.947C218.476 98.4356 217.923 93.6808 214.322 94.0125Z" fill="#F49A66"/>
<path fill-rule="evenodd" clip-rule="evenodd" d="M214.521 105.623C214.521 105.645 214.521 105.689 214.521 105.711C214.388 106.507 213.637 107.082 212.842 106.972C212.046 106.861 211.516 106.131 211.649 105.313C211.649 105.291 211.671 105.247 211.671 105.225L214.521 105.623Z" fill="white"/>
<path d="M205.242 103.721L206.148 104.274" stroke="#010202" stroke-width="2" stroke-miterlimit="10" stroke-linecap="round"/>
<path d="M211.14 100.47C211.14 100.47 210.124 100.138 209.395 100.713" stroke="#010202" stroke-width="2" stroke-miterlimit="10" stroke-linecap="round"/>
<path d="M216.465 100.072C216.465 100.072 215.493 99.674 214.698 100.183" stroke="#010202" stroke-width="2" stroke-miterlimit="10" stroke-linecap="round"/>
<path d="M213.328 100.935C213.328 100.935 215.294 103.633 213.483 104.296" stroke="#010202" stroke-width="2" stroke-miterlimit="10" stroke-linecap="round"/>
<path fill-rule="evenodd" clip-rule="evenodd" d="M215.272 114.137L215.096 110.754C214.786 110.798 214.455 110.842 214.367 110.864C213.483 111.063 210.699 110.488 208.092 108.984C209.616 111.152 212.356 113.496 215.272 114.137Z" fill="#0A0A09"/>
<path fill-rule="evenodd" clip-rule="evenodd" d="M210.412 101.465C210.721 101.443 210.964 101.664 210.986 101.974C211.008 102.284 210.765 102.549 210.456 102.571C210.146 102.593 209.903 102.372 209.881 102.063C209.881 101.753 210.102 101.488 210.412 101.465Z" fill="#0A0A09"/>
<path fill-rule="evenodd" clip-rule="evenodd" d="M215.582 101.001C215.891 100.979 216.134 101.2 216.156 101.51C216.178 101.819 215.935 102.085 215.626 102.107C215.316 102.129 215.073 101.908 215.051 101.598C215.051 101.311 215.272 101.023 215.582 101.001Z" fill="#0A0A09"/>
<path fill-rule="evenodd" clip-rule="evenodd" d="M224.022 107.171C224.022 107.171 221.945 107.149 219.404 108.962C217.438 110.378 214.963 110.687 214.963 110.687C214.963 110.687 219.581 109.559 217.835 99.9834C216.554 92.8622 215.162 94.941 215.162 94.941C215.162 94.941 214.83 98.8555 210.191 99.541C206.877 100.028 206.391 102.571 206.391 102.571C206.391 102.571 204.579 102.239 204.446 103.389C204.247 105.092 205.86 105.269 205.86 105.269L206.125 111.196C206.125 111.196 203.982 112.39 199.74 110.245C196.89 108.83 196.868 108.984 195.344 108.564C195.321 108.564 194.813 106.861 195.807 104.451C196.47 102.836 198.503 102.372 199.674 100.713C199.74 100.625 199.784 100.536 199.829 100.426C199.453 100.912 198.856 101.333 198.017 101.554C193.488 102.792 193.09 107.127 193.068 107.304C193.068 107.414 192.957 107.503 192.847 107.503H192.825C192.692 107.503 192.604 107.392 192.626 107.259C192.626 107.215 193.068 102.438 197.906 101.111C199.807 100.603 200.072 99.143 200.072 98.4132C200.072 98.1699 199.453 94.2776 205.131 93.7247C212.356 93.0391 216.2 92.442 217.327 95.2285C218.321 97.6612 219.205 100.647 220.862 101.421C224.729 103.279 224.022 107.171 224.022 107.171Z" fill="url(#paint0_linear_358_12294)"/>
<path fill-rule="evenodd" clip-rule="evenodd" d="M198.282 178.206L199.143 187.118C199.143 187.118 192.427 186.919 189.577 182.408C189.201 177.83 189.555 176.282 189.864 173.562C190.991 163.3 198.282 178.206 198.282 178.206Z" fill="#0A0A09"/>
<path fill-rule="evenodd" clip-rule="evenodd" d="M198.525 141.052C194.813 146.426 186.329 156.533 178.176 158.28L178.994 137.978C184.473 135.965 190.151 132.648 194.46 125.615C197.972 119.865 199.718 120.706 199.718 120.706C202.723 130.768 202.789 134.882 198.525 141.052Z" fill="#CA4440"/>
<path fill-rule="evenodd" clip-rule="evenodd" d="M203.651 119.932C203.651 119.932 214.654 128.269 205.043 155.14C197.597 175.884 198.569 181.346 198.569 181.346C198.569 181.346 182.684 180.838 188.848 162.792C195.807 142.401 192.25 128.778 196.095 123.714C200.094 118.45 203.651 119.932 203.651 119.932Z" fill="#CA4440"/>
<path fill-rule="evenodd" clip-rule="evenodd" d="M195.189 156.865C186.97 164.34 187.147 170.444 187.898 173.274C185.49 166.662 192.383 154.211 192.206 148.594C197.089 143.706 201.419 138.973 202.171 135.413V135.435C203.386 128.181 201.508 124.709 201.486 124.665C201.419 124.554 201.464 124.422 201.574 124.355C201.684 124.289 201.817 124.333 201.883 124.422C201.972 124.598 203.982 128.314 202.502 136.165C204.137 140.654 202.767 149.987 195.189 156.865Z" fill="#0A0A09"/>
<path fill-rule="evenodd" clip-rule="evenodd" d="M208.578 130.37C208.578 130.37 203.673 121.767 203.209 119.976C203.54 119.003 204.468 118.605 204.557 116.15C204.579 115.398 205.109 115.111 205.109 115.111C205.131 115.133 205.153 115.155 205.175 115.177V115.089L206.302 114.978L206.368 116.327C211.826 122.387 208.578 130.37 208.578 130.37Z" fill="#0A0A09"/>
<path fill-rule="evenodd" clip-rule="evenodd" d="M120.423 245.414C120.423 245.414 120.577 257.224 123.516 263.085C125.571 267.198 126.41 269.188 126.41 269.188C126.41 269.188 119.981 273.258 114.634 266.181C109.597 259.524 104.802 245.237 104.802 245.237L109.111 241.124C109.111 241.124 110.701 244.087 111.364 245.038C113.198 247.714 114.789 246.985 114.789 246.985L115.739 245.038L120.423 245.414Z" fill="white"/>
<path fill-rule="evenodd" clip-rule="evenodd" d="M129.525 232.477L120.732 243.933C120.732 243.933 112.645 249.417 110.789 244.53C110.127 242.783 110.856 240.062 112.203 237.74C114.921 233.074 119.251 226.461 119.251 226.461L129.525 232.477Z" fill="#E05C57"/>
<path fill-rule="evenodd" clip-rule="evenodd" d="M120.71 243.911L117.904 247.582C117.904 247.582 112.645 249.395 110.79 244.53C110.326 243.336 108.47 242.827 109.088 241.146L111.961 238.161C111.961 238.161 115.451 244.817 120.71 243.911Z" fill="white"/>
<path fill-rule="evenodd" clip-rule="evenodd" d="M119.252 226.461L129.525 232.477L127.868 234.644C120.776 235.617 117.484 231.106 116.888 230.155C118.235 228.009 119.252 226.461 119.252 226.461Z" fill="#020203"/>
<path fill-rule="evenodd" clip-rule="evenodd" d="M114.502 265.938C119.517 272.55 125.482 269.742 126.211 269.321C126.3 269.366 126.344 269.388 126.344 269.388C126.344 269.388 119.031 275.403 113.176 267.375C108.249 260.63 103.543 245.901 103.543 245.901L105.421 244.641C105.752 246.211 109.796 259.745 114.502 265.938Z" fill="white"/>
<path fill-rule="evenodd" clip-rule="evenodd" d="M116.733 263.306C119.362 267.53 121.748 267.308 121.748 267.308L120.157 262.355L122.853 261.603C123.052 262.111 123.25 262.62 123.494 263.062C125.548 267.176 126.388 269.166 126.388 269.166C126.388 269.166 119.958 273.235 114.612 266.158C113.463 264.633 112.424 262.797 111.519 260.851C112.734 260.519 114.943 260.408 116.733 263.306ZM122.477 260.497L119.76 261.337L115.473 249.351C113.198 249.329 111.276 249.771 108.691 245.458C108.05 244.419 107.718 243.114 107.608 242.539L109.066 241.146C109.066 241.146 110.657 244.109 111.32 245.06C113.154 247.736 114.744 247.007 114.744 247.007L115.694 245.06L120.422 245.436C120.422 245.414 120.533 254.327 122.477 260.497Z" fill="#F28E22"/>
<path d="M120.776 251.208C119.141 251.054 117.33 251.673 117.33 251.673L117.771 252.889C117.771 252.889 119.362 252.336 120.909 252.403C121.284 252.403 121.174 251.231 120.776 251.208Z" fill="white"/>
<path d="M121.682 257.423C120.422 257.534 119.45 257.887 119.45 257.887L119.892 259.104C119.892 259.104 120.732 258.816 121.969 258.661C122.433 258.617 122.168 257.379 121.682 257.423Z" fill="white"/>
<path d="M121.13 254.283C119.693 254.283 118.346 254.769 118.346 254.769L118.788 255.986C118.788 255.986 119.981 255.632 121.328 255.521C121.792 255.455 121.594 254.283 121.13 254.283Z" fill="white"/>
<path fill-rule="evenodd" clip-rule="evenodd" d="M112.093 241.655L100.538 244.729C102.637 259.214 104.36 265.562 104.36 265.562C104.36 265.562 107.962 275.204 109.84 274.828C112.137 274.363 113.905 264.478 113.905 264.478L112.093 241.655Z" fill="#E05C57"/>
<path fill-rule="evenodd" clip-rule="evenodd" d="M100.494 244.043L112.027 240.239L112.557 247.117C110.281 247.559 103.476 249.041 101.576 250.987C101.201 248.709 100.825 246.387 100.494 244.043Z" fill="#020203"/>
<path fill-rule="evenodd" clip-rule="evenodd" d="M109.839 274.407C107.961 274.806 105.973 272.904 105.973 272.904C105.973 272.904 105.288 270.029 104.338 265.539C105.045 265.893 106.967 265.982 109.199 265.716C111.408 265.451 113.242 264.942 113.883 264.456L114.413 271.157C114.435 271.179 112.137 273.943 109.839 274.407Z" fill="white"/>
<path fill-rule="evenodd" clip-rule="evenodd" d="M134.762 276.309C134.762 276.309 132.95 282.679 127.67 282.679C119.87 282.679 103.013 282.679 103.013 282.679L104.891 270.559C108.735 270.294 111.364 271.577 113.375 272.461C113.397 268.901 116.424 268.304 116.424 268.304L116.844 271.223L125.306 272.926L126.454 273.346L134.762 276.309Z" fill="white"/>
<path fill-rule="evenodd" clip-rule="evenodd" d="M127.669 281.197C124.863 281.197 120.886 281.197 116.954 281.197C117.307 280.091 118.655 277.725 123.737 277.725C127.316 277.725 129.724 278.057 130.431 276.995C130.851 276.376 130.232 275.956 127.691 275.226C125.416 274.563 125.703 273.545 126.454 273.346L134.761 276.31C134.761 276.31 132.95 281.197 127.669 281.197ZM104.272 274.43C107.078 274.496 109.53 276.708 109.95 279.716C110.016 280.224 110.038 280.711 109.994 281.175C106.061 281.175 103.255 281.175 103.255 281.175L104.272 274.43ZM124.399 275.536L112.822 272.395L104.736 271.511L105.111 269.233C108.956 268.967 111.386 270.25 113.397 271.135C113.419 267.574 116.446 266.977 116.446 266.977L116.865 269.896L125.327 272.926L124.399 275.536Z" fill="#F28E22"/>
<path fill-rule="evenodd" clip-rule="evenodd" d="M123.781 274.585L122.499 274.275L123.582 272.307L124.819 272.749L123.781 274.585ZM117.837 270.25L119.075 270.692L117.683 273.103L116.401 272.793L117.837 270.25ZM120.666 271.267L121.903 271.71L120.71 273.855L119.406 273.523L120.666 271.267Z" fill="white"/>
<path fill-rule="evenodd" clip-rule="evenodd" d="M141.346 152.132L138.319 152.22C135.226 152.308 132.353 150.561 131.006 147.775L125.88 137.226L131.094 123.05L140.904 142.71L141.478 142.755L141.346 152.132Z" fill="#E05C57"/>
<path fill-rule="evenodd" clip-rule="evenodd" d="M97.2237 101.974C97.2237 101.974 97.7319 102.461 97.776 102.859C97.9307 104.097 96.7818 106.375 95.6108 108.94C94.0421 112.346 92.0758 114.801 91.192 114.381C90.3083 113.983 90.8606 110.887 92.4293 107.481C93.8433 104.362 96.6492 101.841 96.6492 101.841L97.2237 101.974Z" fill="#010202"/>
<path fill-rule="evenodd" clip-rule="evenodd" d="M131.182 137.956C127.957 139.393 125.04 139.46 125.04 139.46L124.93 139.261C122.676 143.441 120.401 147.576 120.401 147.576L98.1961 137.182L98.2624 118.45C98.2624 118.45 95.3018 116.769 91.5679 114.514C91.6121 114.469 91.6562 114.403 91.7225 114.359C92.7168 113.983 94.3296 111.816 95.6553 108.918C97.003 105.955 97.6879 102.969 97.2681 101.952L113.397 109.272C113.397 109.272 113.927 117.61 119.384 119.379C124.311 120.971 124.797 114.801 124.797 114.801C124.797 114.801 125.968 115.31 127.404 116.393C128.487 117.212 129.901 118.738 129.901 118.738L136.573 133.843C136.507 133.843 134.806 136.342 131.182 137.956Z" fill="white"/>
<path d="M98.3286 118.583L100.626 119.909" stroke="#010202" stroke-width="2" stroke-miterlimit="10" stroke-linecap="round"/>
<path fill-rule="evenodd" clip-rule="evenodd" d="M98.2402 118.981C96.7599 121.944 93.976 128.667 96.2517 133.798C96.6936 134.771 97.3564 135.258 98.1739 135.413L98.2402 118.981Z" fill="#010202"/>
<path fill-rule="evenodd" clip-rule="evenodd" d="M126.078 160.513C127.492 165.932 139.401 198.353 139.821 206.403C140.241 214.453 136.905 224.338 136.905 224.338C136.905 224.338 135.601 231.261 130.166 231.482C122.19 231.813 119.207 221.707 119.207 221.707L120.643 211.6L113.286 190.303L116.269 240.328C116.269 240.328 115.12 243.49 108.558 245.26C100.516 247.427 97.7981 246.476 97.7981 246.476C97.7981 246.476 91.1699 186.809 90.3745 168.586C89.5791 150.362 95.6108 147.886 95.6108 147.886L95.3899 129.53C95.6108 133.024 97.5772 133.577 99.4993 132.913C103.94 131.41 108.271 122.718 108.271 122.718C112.888 110.643 109.088 107.547 107.961 106.839L110.988 108.166C110.988 108.166 116.666 110.4 111.96 123.536L130.1 127.584L122.168 150.628C122.19 150.628 124.664 155.095 126.078 160.513Z" fill="#5864AC"/>
<path fill-rule="evenodd" clip-rule="evenodd" d="M127.89 134.528C134.474 118.914 128.023 116.393 128.023 116.393L124.709 114.801C124.709 114.801 131.16 117.167 124.576 132.781C118.898 146.227 122.212 147.996 127.89 134.528Z" fill="#5864AC"/>
<path fill-rule="evenodd" clip-rule="evenodd" d="M113.927 172.168C113.927 172.168 114.567 176.193 116.004 179.157C117.418 182.12 120.047 188.976 118.677 192.537C117.329 196.119 115.473 196.606 115.473 196.606L113.485 190.834L113.927 172.168Z" fill="#020203"/>
<path d="M113.353 190.834L113.818 164.118" stroke="#010202" stroke-width="2" stroke-miterlimit="10" stroke-linecap="round"/>
<path fill-rule="evenodd" clip-rule="evenodd" d="M111.828 129.707C111.828 129.707 115.032 132.228 120.423 132.913C124.333 133.4 124.378 132.228 124.378 132.228L111.828 129.707Z" fill="#020203"/>
<path fill-rule="evenodd" clip-rule="evenodd" d="M111.651 129.463L124.643 132.161L121.793 141.295L114.038 143.617L108.801 138.597L111.651 129.463Z" stroke="#010202" stroke-width="2" stroke-miterlimit="10" stroke-linecap="round"/>
<path d="M122.234 150.672C121.836 153.724 115.849 155.405 108.47 154.432C101.09 153.459 95.633 150.296 96.0307 147.244" stroke="#010202" stroke-width="2" stroke-miterlimit="10" stroke-linecap="round"/>
<path d="M102.018 152.861C102.018 152.861 101.112 158.147 99.3889 161.553C97.5551 165.18 93.7549 164.649 93.7549 164.649" stroke="#010202" stroke-width="2" stroke-miterlimit="10" stroke-linecap="round"/>
<path fill-rule="evenodd" clip-rule="evenodd" d="M106.371 239.731C100.56 240.903 95.5447 240.239 95.1249 238.249C94.9703 237.475 95.5447 236.59 96.6715 235.75L96.8041 237.165C96.782 237.32 96.782 237.453 96.8041 237.585C97.1797 239.377 101.709 239.996 106.967 238.912C112.204 237.851 116.158 235.529 115.805 233.715C115.805 233.671 115.783 233.649 115.761 233.605L115.739 233.273C115.937 233.472 116.07 233.715 116.114 233.959C116.534 235.971 112.159 238.559 106.371 239.731Z" fill="#020203"/>
<path fill-rule="evenodd" clip-rule="evenodd" d="M122.566 221.663C125.814 226.329 131.426 228.032 135.115 225.466C136.264 224.67 137.082 223.542 137.568 222.238C137.656 224.604 136.64 226.727 134.386 228.363C130.586 231.128 124.51 230.464 121.108 225.577C118.213 221.397 118.059 216.31 120.467 213.236C120.025 215.89 120.71 218.964 122.566 221.663Z" fill="#020203"/>
<path fill-rule="evenodd" clip-rule="evenodd" d="M122.124 222.835C125.526 227.722 131.403 229.491 135.27 226.815C136.353 226.064 137.17 225.046 137.678 223.852L137.722 223.874L135.071 229.536C134.563 231.039 133.679 232.322 132.376 233.229C128.509 235.927 122.632 234.136 119.23 229.248C116.623 225.511 116.247 221.043 117.926 217.947L119.959 213.878L120.069 213.944C119.208 216.864 119.937 219.672 122.124 222.835Z" fill="#6879BA"/>
<path fill-rule="evenodd" clip-rule="evenodd" d="M116.556 241.854C116.556 243.712 112.513 246.012 107.21 247.073C101.952 248.135 97.3563 247.626 96.583 245.945C96.5388 245.945 96.5388 245.923 96.5388 245.923L95.1689 238.714C95.2352 238.736 95.3015 238.736 95.3457 238.758C96.4504 240.328 101.09 240.793 106.349 239.709C112.159 238.537 116.534 235.971 116.114 233.959C116.07 233.782 116.004 233.627 115.893 233.472C116.026 233.251 116.114 233.141 116.114 233.141L116.578 241.788C116.6 241.81 116.578 241.832 116.556 241.854Z" fill="#6879BA"/>
<path d="M97.5552 150.871C97.5552 150.871 93.534 155.427 94.0643 163.433C95.0364 178.294 97.1575 202.732 101.532 247.67" stroke="#010202" stroke-width="2" stroke-miterlimit="10" stroke-linecap="round"/>
<path d="M118.036 226.948L125.438 211.821L113.838 178.206" stroke="#010202" stroke-width="2" stroke-miterlimit="10" stroke-linecap="round"/>
<path fill-rule="evenodd" clip-rule="evenodd" d="M95.1911 108.476C96.561 105.468 97.1575 102.704 96.6714 101.819L85.9779 97.573L83.6139 78.5538C83.6139 78.5538 84.6744 77.647 84.7848 75.723C84.8953 73.799 85.1384 66.5451 84.9837 65.6384C84.8069 64.7316 83.6581 65.3951 83.3708 67.8942C82.7964 72.8259 81.2719 69.0663 81.2719 69.0663C81.2719 69.0663 78.8195 62.697 78.2229 61.149C77.4055 59.048 76.2124 59.0922 76.6764 61.0384C77.3392 63.8913 78.2008 67.673 78.2008 67.673C78.2008 67.673 75.2402 61.149 74.4448 59.6451C73.9809 58.7826 73.0087 59.0701 73.0529 59.7778C73.075 60.2201 73.1413 60.6403 73.1413 60.6403C73.1413 60.6403 72.9204 60.3749 72.6773 60.3528C72.3017 60.3307 71.8819 60.6403 72.0808 61.4807C72.3901 62.8961 74.489 69.7961 74.489 69.7961C74.489 69.7961 72.8983 67.6067 71.7494 65.7932C70.2028 63.3605 69.2528 63.9355 69.8714 65.5057C70.5121 67.0759 75.5937 78.399 76.3449 79.3057C76.4775 82.7557 76.9415 98.7009 76.9415 98.7009C77.0078 101.465 78.5102 103.986 80.8963 105.38L92.9817 112.302C93.7108 111.351 94.4841 110.002 95.1911 108.476Z" fill="#E05C57"/>
<path d="M74.4229 71.101C74.4229 71.101 76.5439 68.6683 79.4161 68.3145" stroke="#010202" stroke-width="2" stroke-miterlimit="10" stroke-linecap="round"/>
<path d="M73.8042 61.8345L76.6543 69.0662" stroke="#010202" stroke-width="2" stroke-miterlimit="10" stroke-linecap="round"/>
<path d="M82.4427 70.8579C82.4427 70.8579 79.1507 72.6271 79.8798 76.2098" stroke="#010202" stroke-width="2" stroke-miterlimit="10" stroke-linecap="round"/>
<path fill-rule="evenodd" clip-rule="evenodd" d="M132.862 103.411C131.492 106.375 128.465 108.432 124.974 108.432C121.572 108.432 118.611 106.485 117.197 103.655C114.148 101.31 112.182 97.6171 112.182 93.4373C112.182 86.3604 117.86 80.6104 124.886 80.6104C131.912 80.6104 137.59 86.3604 137.59 93.4373C137.568 97.4623 135.734 101.067 132.862 103.411Z" fill="#0A0A09"/>
<path fill-rule="evenodd" clip-rule="evenodd" d="M128.222 99.6079C128.067 99.0993 127.669 98.7012 127.117 98.5906C126.962 98.5685 126.763 98.5464 126.609 98.5685L127.404 95.0079C126.874 86.1175 117.44 87.0243 115.849 89.5454C115.849 89.5454 114.744 90.8723 114.413 93.1281C114.413 93.1945 114.391 93.2608 114.369 93.3272C114.325 93.5262 114.28 93.7031 114.258 93.9022C114.192 94.256 114.104 94.6098 114.015 94.9416C113.75 94.1675 114.037 92.6195 114.037 91.7791C114.037 87.1791 117.882 84.1714 123.14 84.1714C128.42 84.1714 132.685 87.9089 132.685 92.4868C132.729 95.4723 130.696 97.507 128.222 99.6079Z" fill="#5766AC"/>
<path fill-rule="evenodd" clip-rule="evenodd" d="M115.562 105.623L114.656 110.046L113.375 109.272C113.485 110.444 114.347 117.764 119.362 119.379C124.289 120.971 124.775 114.801 124.775 114.801C124.775 114.801 124.775 114.801 124.797 114.801L123.405 114.137L126.145 101.178C126.278 101.244 126.41 101.31 126.587 101.332C127.36 101.487 128.133 100.979 128.288 100.205C128.443 99.4084 127.935 98.6565 127.161 98.5017C127.007 98.4795 126.874 98.4574 126.719 98.4795L127.471 94.9632C126.94 86.0728 117.506 86.9795 115.915 89.5007C115.915 89.5007 114.811 90.8276 114.479 93.0834C113.684 97.9267 110.502 102.195 115.562 105.623Z" fill="#E05C57"/>
<path fill-rule="evenodd" clip-rule="evenodd" d="M114.435 90.4741C114.435 90.4741 115.142 92.1107 118.081 92.177C121.837 92.2655 124.532 90.4299 124.532 90.4299L126.94 97.3963C126.94 97.3963 129.592 94.1895 128.509 91.0049C127.625 88.3953 125.129 89.2578 125.129 89.2578C125.129 89.2578 125.283 85.9847 121.814 85.5645C116.512 84.9011 115.672 89.6116 115.672 89.6116C115.672 89.6116 115.451 90.6068 114.435 90.4741Z" fill="#0A0A09"/>
<path fill-rule="evenodd" clip-rule="evenodd" d="M114.855 109.073L115.562 105.623C115.871 105.711 116.247 105.911 116.335 105.933C117.241 106.242 120.997 106.95 125.129 103.058C123.936 106.685 118.81 109.383 114.855 109.073Z" fill="#010202"/>
<path fill-rule="evenodd" clip-rule="evenodd" d="M120.445 100.227C120.445 100.249 120.445 100.249 120.445 100.227C120.621 101.288 119.892 102.283 118.854 102.438C117.793 102.615 116.821 101.885 116.645 100.846C116.645 100.846 116.645 100.846 116.645 100.824L120.445 100.227Z" fill="white"/>
<path d="M126.764 100.16L127.493 99.7402" stroke="#010202" stroke-width="2" stroke-miterlimit="10" stroke-linecap="round"/>
<path d="M119.163 94.9631C119.185 94.941 119.163 96.7102 117.882 97.7054C116.224 98.9881 118.213 99.6958 118.213 99.6958" stroke="#010202" stroke-width="2" stroke-miterlimit="10" stroke-linecap="round"/>
<path d="M117.175 94.6538H115.938" stroke="#010202" stroke-width="2" stroke-miterlimit="10" stroke-linecap="round"/>
<path d="M121.771 95.605L122.919 96.0694" stroke="#010202" stroke-width="2" stroke-miterlimit="10" stroke-linecap="round"/>
<path fill-rule="evenodd" clip-rule="evenodd" d="M116.534 95.4053C116.844 95.4716 117.042 95.7591 116.998 96.0688C116.932 96.3784 116.645 96.5774 116.335 96.5332C116.026 96.4668 115.827 96.1793 115.871 95.8697C115.938 95.538 116.225 95.3389 116.534 95.4053Z" fill="#020203"/>
<path fill-rule="evenodd" clip-rule="evenodd" d="M121.836 96.4893C122.146 96.5557 122.345 96.8432 122.3 97.1528C122.234 97.4624 121.947 97.6615 121.638 97.6172C121.328 97.5509 121.129 97.2634 121.174 96.9538C121.218 96.6442 121.527 96.423 121.836 96.4893Z" fill="#020203"/>
<path d="M138.981 81.6279C138.981 81.6279 140.528 86.2722 136.485 89.302" stroke="#010202" stroke-width="2" stroke-miterlimit="10" stroke-linecap="round"/>
<path d="M129.857 82.7998C129.857 82.7998 132.84 79.7921 135.623 82.0479C138.739 84.5469 136.132 88.8373 136.132 88.8373" stroke="#010202" stroke-width="2" stroke-miterlimit="10" stroke-linecap="round"/>
<path fill-rule="evenodd" clip-rule="evenodd" d="M48.5288 104.185L53.3895 102.328L58.0955 108.586L48.5288 104.185Z" fill="#5864AC"/>
<path fill-rule="evenodd" clip-rule="evenodd" d="M190.991 74.5728L195.962 76.6295L188.074 81.8929L190.991 74.5728Z" fill="#5864AC"/>
<path fill-rule="evenodd" clip-rule="evenodd" d="M297.948 100.315C299.936 99.4971 301.748 99.276 301.969 99.8068C302.19 100.338 300.754 101.443 298.743 102.262C296.755 103.08 294.943 103.301 294.722 102.77C294.501 102.217 295.937 101.134 297.948 100.315Z" fill="#5864AC"/>
<path fill-rule="evenodd" clip-rule="evenodd" d="M136.927 65.3728L140.175 64.7314L136.706 68.6016L133.458 69.243L136.927 65.3728Z" fill="#F28E22"/>
<path fill-rule="evenodd" clip-rule="evenodd" d="M319.18 139.327L321.964 141.141L316.794 141.494L314.01 139.681L319.18 139.327Z" fill="#F28E22"/>
<path fill-rule="evenodd" clip-rule="evenodd" d="M64.5467 140.919L67.8166 141.428L63.2432 143.882L59.9512 143.374L64.5467 140.919Z" fill="#F28E22"/>
<path fill-rule="evenodd" clip-rule="evenodd" d="M228.506 78.5982C229.567 79.1069 230.185 80.08 229.854 80.7434C229.523 81.4069 228.396 81.5396 227.335 81.0309C226.275 80.5223 225.656 79.5492 225.988 78.8857C226.319 78.2002 227.446 78.0896 228.506 78.5982Z" fill="#F28E22"/>
<path fill-rule="evenodd" clip-rule="evenodd" d="M71.219 121.325C72.633 121.9 73.4725 123.161 73.0748 124.134C72.6772 125.129 71.219 125.461 69.7828 124.908C68.3688 124.333 67.5293 123.072 67.9269 122.099C68.3246 121.104 69.8049 120.772 71.219 121.325Z" fill="#C94540"/>
<path fill-rule="evenodd" clip-rule="evenodd" d="M189.267 91.3806C190.704 90.8719 192.162 91.27 192.515 92.2652C192.869 93.2604 191.985 94.4988 190.549 95.0075C189.113 95.5161 187.655 95.1181 187.301 94.1229C186.948 93.1277 187.831 91.8892 189.267 91.3806Z" fill="#C94540"/>
<path fill-rule="evenodd" clip-rule="evenodd" d="M287.321 92.1104C288.16 92.1104 288.845 92.7959 288.845 93.6363C288.845 94.4767 288.16 95.1623 287.321 95.1623C286.481 95.1623 285.796 94.4767 285.796 93.6363C285.796 92.7959 286.481 92.1104 287.321 92.1104Z" fill="#C94540"/>
<path fill-rule="evenodd" clip-rule="evenodd" d="M95.5004 138.066L94.3295 138.818C93.4678 139.371 92.9154 140.322 92.8713 141.339L92.5619 146.957C92.5398 147.532 92.7829 148.085 93.2469 148.439L97.7761 151.955C97.7761 151.955 98.2401 151.778 98.2843 151.137C98.3064 150.606 98.1517 150.164 98.1517 150.164C98.1517 150.164 98.5936 149.942 98.6599 149.434C98.7704 148.638 98.3727 148.195 98.3727 148.195C98.3727 148.195 98.7704 148.151 98.8366 147.244C98.8587 147.045 98.8587 146.559 98.682 146.139C99.1239 144.436 97.9308 143.551 97.3121 142.954L95.5888 141.295L95.5004 138.066Z" fill="#F9C19E"/>
<path d="M92.6725 145.077C92.6504 145.652 92.9597 146.205 93.4237 146.559L98.0855 150.164" stroke="#010202" stroke-width="2" stroke-miterlimit="10" stroke-linecap="round" stroke-linejoin="round"/>
<path d="M92.783 143.021C92.7609 143.596 93.2249 144.237 93.6888 144.591L98.3949 148.218" stroke="#010202" stroke-width="2" stroke-miterlimit="10" stroke-linecap="round" stroke-linejoin="round"/>
<path d="M93.0038 140.875C92.9817 141.45 93.2248 142.003 93.6887 142.357L98.6599 146.205" stroke="#010202" stroke-width="2" stroke-miterlimit="10" stroke-linecap="round" stroke-linejoin="round"/>
<defs>
<linearGradient id="paint0_linear_358_12294" x1="208.337" y1="111.514" x2="208.337" y2="93.1643" gradientUnits="userSpaceOnUse">
<stop offset="0.1576" stop-color="#475AA5"/>
<stop offset="0.684" stop-color="#010202"/>
</linearGradient>
</defs>
</svg>
