<svg width="35" height="35" viewBox="0 0 35 35" fill="none" xmlns="http://www.w3.org/2000/svg">
<path d="M17.5 0C14.0388 0 10.6554 1.02636 7.77753 2.94928C4.89967 4.8722 2.65665 7.60533 1.33212 10.803C0.0075825 14.0007 -0.338976 17.5194 0.336265 20.9141C1.01151 24.3087 2.67822 27.4269 5.12564 29.8744C7.57306 32.3218 10.6913 33.9885 14.0859 34.6637C17.4806 35.339 20.9993 34.9924 24.197 33.6679C27.3947 32.3433 30.1278 30.1003 32.0507 27.2225C33.9736 24.3446 35 20.9612 35 17.5C34.995 12.8602 33.1496 8.41197 29.8688 5.13117C26.588 1.85037 22.1398 0.00501824 17.5 0V0ZM17.5 32.0833C14.6157 32.0833 11.7962 31.228 9.39794 29.6256C6.99972 28.0231 5.13054 25.7455 4.02676 23.0808C2.92299 20.416 2.63419 17.4838 3.19689 14.6549C3.75959 11.826 5.14852 9.22754 7.18803 7.18802C9.22755 5.14851 11.826 3.75958 14.6549 3.19688C17.4838 2.63418 20.416 2.92298 23.0808 4.02676C25.7456 5.13053 28.0232 6.99971 29.6256 9.39793C31.228 11.7961 32.0833 14.6157 32.0833 17.5C32.0791 21.3664 30.5413 25.0733 27.8073 27.8073C25.0733 30.5413 21.3664 32.0791 17.5 32.0833ZM24.7917 17.5C24.7917 17.8868 24.638 18.2577 24.3645 18.5312C24.091 18.8047 23.7201 18.9583 23.3333 18.9583H18.9583V23.3333C18.9583 23.7201 18.8047 24.091 18.5312 24.3645C18.2577 24.638 17.8868 24.7917 17.5 24.7917C17.1132 24.7917 16.7423 24.638 16.4688 24.3645C16.1953 24.091 16.0417 23.7201 16.0417 23.3333V18.9583H11.6667C11.2799 18.9583 10.909 18.8047 10.6355 18.5312C10.362 18.2577 10.2083 17.8868 10.2083 17.5C10.2083 17.1132 10.362 16.7423 10.6355 16.4688C10.909 16.1953 11.2799 16.0417 11.6667 16.0417H16.0417V11.6667C16.0417 11.2799 16.1953 10.909 16.4688 10.6355C16.7423 10.362 17.1132 10.2083 17.5 10.2083C17.8868 10.2083 18.2577 10.362 18.5312 10.6355C18.8047 10.909 18.9583 11.2799 18.9583 11.6667V16.0417H23.3333C23.7201 16.0417 24.091 16.1953 24.3645 16.4688C24.638 16.7423 24.7917 17.1132 24.7917 17.5Z" fill="#4F4F4F" fill-opacity="0.6"/>
</svg>
