<svg width="24" height="24" viewBox="0 0 24 24" fill="none" xmlns="http://www.w3.org/2000/svg">
<path d="M24 0.876395H12V3.49442L10.975 1.44342C10.7556 1.00456 10.44 0.640133 10.0599 0.386761C9.67991 0.133389 9.24882 0 8.81 0C8.37118 0 7.94009 0.133389 7.56005 0.386761C7.18002 0.640133 6.86443 1.00456 6.645 1.44342L0 14.7345H7.181C6.9506 15.8382 6.94002 16.988 7.15006 18.0972C7.36009 19.2063 7.78527 20.2461 8.39358 21.138C9.00189 22.03 9.77749 22.751 10.662 23.2467C11.5465 23.7424 12.5168 24 13.5 24C14.4832 24 15.4535 23.7424 16.338 23.2467C17.2225 22.751 17.9981 22.03 18.6064 21.138C19.2147 20.2461 19.6399 19.2063 19.8499 18.0972C20.06 16.988 20.0494 15.8382 19.819 14.7345H24V0.876395ZM5.2 11.2699L8.81 4.04181L11.46 9.34252C10.456 9.72698 9.5484 10.3886 8.816 11.2699H5.2ZM13.5 20.5087C12.8078 20.5087 12.1311 20.2716 11.5555 19.8275C10.9799 19.3833 10.5313 18.7521 10.2664 18.0135C10.0015 17.2749 9.9322 16.4622 10.0673 15.6782C10.2023 14.8941 10.5356 14.1739 11.0251 13.6086C11.5146 13.0434 12.1383 12.6584 12.8172 12.5024C13.4961 12.3465 14.1999 12.4265 14.8394 12.7325C15.4789 13.0384 16.0256 13.5564 16.4101 14.2211C16.7947 14.8858 17 15.6673 17 16.4667C17 17.5387 16.6313 18.5668 15.9749 19.3248C15.3185 20.0828 14.4283 20.5087 13.5 20.5087ZM21 11.2699H18.184C17.3197 10.2306 16.2142 9.50124 15 9.16929V4.34091H21V11.2699Z" fill="#FF2103"/>
</svg>
