<svg width="33" height="30" viewBox="0 0 33 30" fill="none" xmlns="http://www.w3.org/2000/svg">
<path d="M28.719 2.5H24.7095V0H22.0365V2.5H11.3444V0H8.67139V2.5H4.66187C3.59847 2.5 2.57864 2.89509 1.82671 3.59835C1.07477 4.30161 0.652344 5.25544 0.652344 6.25L0.652344 30H32.7285V6.25C32.7285 5.25544 32.3061 4.30161 31.5542 3.59835C30.8022 2.89509 29.7824 2.5 28.719 2.5ZM3.32536 6.25C3.32536 5.91848 3.46617 5.60054 3.71681 5.36612C3.96746 5.1317 4.3074 5 4.66187 5H28.719C29.0735 5 29.4134 5.1317 29.6641 5.36612C29.9147 5.60054 30.0555 5.91848 30.0555 6.25V10H3.32536V6.25ZM3.32536 27.5V12.5H30.0555V27.5H3.32536Z" fill="#FF7F00"/>
<path d="M23.3732 16.25H20.7002V18.75H23.3732V16.25Z" fill="#FF7F00"/>
<path d="M18.0265 16.25H15.3535V18.75H18.0265V16.25Z" fill="#FF7F00"/>
<path d="M12.6808 16.25H10.0078V18.75H12.6808V16.25Z" fill="#FF7F00"/>
<path d="M23.3732 21.25H20.7002V23.75H23.3732V21.25Z" fill="#FF7F00"/>
<path d="M18.0265 21.25H15.3535V23.75H18.0265V21.25Z" fill="#FF7F00"/>
<path d="M12.6808 21.25H10.0078V23.75H12.6808V21.25Z" fill="#FF7F00"/>
</svg>
