<svg width="27" height="25" viewBox="0 0 27 25" fill="none" xmlns="http://www.w3.org/2000/svg">
<path d="M14.6048 1.04505C14.6048 0.768325 14.7235 0.502937 14.9349 0.307265C15.1462 0.111594 15.4328 0.00166624 15.7317 0.00166624C18.7192 0.00470415 21.5834 1.10495 23.696 3.06101C25.8085 5.01707 26.9967 7.66919 27 10.4355C27 10.7122 26.8813 10.9776 26.67 11.1733C26.4586 11.3689 26.172 11.4789 25.8732 11.4789C25.5743 11.4789 25.2877 11.3689 25.0764 11.1733C24.865 10.9776 24.7463 10.7122 24.7463 10.4355C24.7436 8.22246 23.793 6.1008 22.103 4.53596C20.413 2.97113 18.1217 2.09091 15.7317 2.08843C15.4328 2.08843 15.1462 1.9785 14.9349 1.78283C14.7235 1.58716 14.6048 1.32177 14.6048 1.04505ZM15.7317 6.26195C16.9271 6.26195 18.0735 6.70166 18.9188 7.48435C19.7641 8.26703 20.239 9.32858 20.239 10.4355C20.239 10.7122 20.3577 10.9776 20.569 11.1733C20.7804 11.3689 21.067 11.4789 21.3658 11.4789C21.6647 11.4789 21.9513 11.3689 22.1626 11.1733C22.3739 10.9776 22.4927 10.7122 22.4927 10.4355C22.4909 8.77565 21.778 7.18429 20.5104 6.01061C19.2429 4.83694 17.5242 4.17685 15.7317 4.17519C15.4328 4.17519 15.1462 4.28512 14.9349 4.48079C14.7235 4.67646 14.6048 4.94185 14.6048 5.21857C14.6048 5.49529 14.7235 5.76068 14.9349 5.95635C15.1462 6.15202 15.4328 6.26195 15.7317 6.26195ZM25.978 17.4668C26.631 18.0731 26.9977 18.8945 26.9977 19.7508C26.9977 20.6071 26.631 21.4284 25.978 22.0347L24.9525 23.1292C15.7238 31.3104 -6.73405 10.521 1.96511 1.94861L3.26097 0.905234C3.91653 0.317474 4.79564 -0.00767297 5.70812 0.000137528C6.6206 0.00794803 7.49308 0.348088 8.13679 0.946969C8.17172 0.979314 10.2597 3.49073 10.2597 3.49073C10.8793 4.09342 11.2242 4.894 11.2227 5.72607C11.2213 6.55814 10.8735 7.35768 10.2519 7.95849L8.94698 9.47765C9.66911 11.1023 10.7308 12.5788 12.0711 13.8224C13.4114 15.0659 15.0039 16.052 16.7571 16.7239L18.4079 15.5084C19.0568 14.9332 19.9202 14.6116 20.8185 14.6104C21.7169 14.6093 22.5812 14.9286 23.2319 15.5021C23.2319 15.5021 25.943 17.4345 25.978 17.4668ZM24.4274 18.9839C24.4274 18.9839 21.7309 17.063 21.696 17.0307C21.4638 16.8175 21.1502 16.698 20.8233 16.698C20.4963 16.698 20.1827 16.8175 19.9505 17.0307C19.9201 17.0599 17.6473 18.7366 17.6473 18.7366C17.4941 18.8495 17.3118 18.9235 17.1184 18.9513C16.9249 18.9791 16.727 18.9598 16.5441 18.8952C14.2729 18.1122 12.21 16.8864 10.4951 15.3008C8.78013 13.7153 7.45325 11.8069 6.60429 9.70511C6.52902 9.53342 6.50448 9.34627 6.53319 9.1629C6.56191 8.97953 6.64285 8.80654 6.76768 8.66173C6.76768 8.66173 8.57851 6.55618 8.60893 6.52905C8.83911 6.3141 8.96826 6.02366 8.96826 5.72096C8.96826 5.41825 8.83911 5.12781 8.60893 4.91286C8.574 4.88156 6.4995 2.38266 6.4995 2.38266C6.26388 2.18703 5.95637 2.08227 5.64 2.08983C5.32364 2.0974 5.02238 2.21672 4.79798 2.42335L3.50212 3.46673C-2.85549 10.545 16.6061 27.5657 23.3051 21.704L24.3317 20.6084C24.5722 20.4021 24.7167 20.1173 24.7346 19.8141C24.7524 19.5109 24.6423 19.2132 24.4274 18.9839Z" fill="#FF7F00"/>
</svg>
