<svg width="28" height="25" viewBox="0 0 28 25" fill="none" xmlns="http://www.w3.org/2000/svg">
<path d="M13.783 0C11.1397 0 8.55569 0.733112 6.35781 2.10663C4.15994 3.48015 2.4469 5.43238 1.43533 7.71646C0.42376 10.0005 0.159087 12.5139 0.674781 14.9386C1.19048 17.3634 2.46337 19.5907 4.33251 21.3388C6.20165 23.087 8.58308 24.2775 11.1757 24.7598C13.7682 25.2421 16.4555 24.9946 18.8976 24.0485C21.3398 23.1024 23.4271 21.5002 24.8957 19.4446C26.3643 17.389 27.1481 14.9723 27.1481 12.5C27.1443 9.18589 25.735 6.00855 23.2293 3.66512C20.7237 1.3217 17.3265 0.00358446 13.783 0V0ZM13.783 22.9167C11.5802 22.9167 9.42691 22.3057 7.59535 21.1611C5.76379 20.0165 4.33626 18.3897 3.49328 16.4863C2.65031 14.5829 2.42975 12.4884 2.85949 10.4678C3.28924 8.44717 4.34999 6.5911 5.9076 5.1343C7.46522 3.67751 9.44974 2.68542 11.6102 2.28349C13.7707 1.88156 16.0101 2.08784 18.0452 2.87625C20.0803 3.66467 21.8198 4.9998 23.0436 6.71281C24.2674 8.42582 24.9206 10.4398 24.9206 12.5C24.9174 15.2617 23.7429 17.9095 21.6549 19.8623C19.5669 21.8152 16.7359 22.9136 13.783 22.9167Z" fill="#FF7F00"/>
<path d="M15.3867 5.5C15.0323 5.5 14.6923 5.6317 14.4417 5.86612C14.191 6.10054 14.0502 6.41848 14.0502 6.75V12.1562L9.54484 14.7962C9.24355 14.9723 9.02937 15.2531 8.94941 15.5768C8.86945 15.9005 8.93028 16.2407 9.1185 16.5225C9.30672 16.8043 9.60692 17.0046 9.95306 17.0794C10.2992 17.1542 10.6629 17.0973 10.9642 16.9212L16.0964 13.9212C16.2903 13.8076 16.4498 13.6493 16.5595 13.4615C16.6693 13.2737 16.7256 13.0627 16.7232 12.8487V6.75C16.7232 6.41848 16.5824 6.10054 16.3318 5.86612C16.0811 5.6317 15.7412 5.5 15.3867 5.5Z" fill="#FF7F00"/>
</svg>
