<svg width="24" height="24" viewBox="0 0 24 24" fill="none" xmlns="http://www.w3.org/2000/svg">
<path d="M21.6 0H3.6C2.64522 0 1.72955 0.31607 1.05442 0.87868C0.379285 1.44129 0 2.20435 0 3V19.5C0.00158811 20.6931 0.571025 21.8369 1.58338 22.6805C2.59573 23.5241 3.96832 23.9987 5.4 24H24V2C24 1.46957 23.7471 0.960859 23.2971 0.585786C22.847 0.210714 22.2365 0 21.6 0V0ZM7.2 3V15H5.4C4.7854 15.0049 4.17644 15.0983 3.6 15.276V3H7.2ZM20.4 21H5.4C4.92261 21 4.46477 20.842 4.12721 20.5607C3.78964 20.2794 3.6 19.8978 3.6 19.5C3.6 19.1022 3.78964 18.7206 4.12721 18.4393C4.46477 18.158 4.92261 18 5.4 18H20.4V21ZM10.8 15V3H20.4V15H10.8Z" fill="#DFCE30"/>
</svg>
