<svg width="26" height="25" viewBox="0 0 26 25" fill="none" xmlns="http://www.w3.org/2000/svg">
<path d="M23.8327 0H19.498C19.2106 0 18.935 0.109747 18.7318 0.305097C18.5285 0.500448 18.4144 0.765399 18.4144 1.04167C18.4144 1.31793 18.5285 1.58289 18.7318 1.77824C18.935 1.97359 19.2106 2.08333 19.498 2.08333H22.3004L19.6996 4.58333C18.5135 3.72238 17.0887 3.21848 15.605 3.13524C14.1213 3.052 12.6452 3.39315 11.363 4.11562C10.3966 3.57885 9.31873 3.25403 8.20651 3.16439C7.0943 3.07475 5.97522 3.22251 4.92934 3.5971C3.88347 3.9717 2.93665 4.56386 2.15662 5.33122C1.3766 6.09859 0.782662 7.02219 0.417297 8.03594C0.0519325 9.04969 -0.0758253 10.1285 0.0431647 11.1953C0.162155 12.262 0.524951 13.2903 1.1056 14.2066C1.68624 15.1228 2.47038 15.9044 3.40192 16.4953C4.33345 17.0863 5.38936 17.4721 6.49407 17.625V19.7917H4.32675C4.03934 19.7917 3.76371 19.9014 3.56048 20.0968C3.35726 20.2921 3.24309 20.5571 3.24309 20.8333C3.24309 21.1096 3.35726 21.3746 3.56048 21.5699C3.76371 21.7653 4.03934 21.875 4.32675 21.875H6.49407V23.9583C6.49407 24.2346 6.60825 24.4996 6.81147 24.6949C7.0147 24.8903 7.29033 25 7.57774 25C7.86514 25 8.14078 24.8903 8.344 24.6949C8.54723 24.4996 8.6614 24.2346 8.6614 23.9583V21.875H10.8287C11.1161 21.875 11.3918 21.7653 11.595 21.5699C11.7982 21.3746 11.9124 21.1096 11.9124 20.8333C11.9124 20.5571 11.7982 20.2921 11.595 20.0968C11.3918 19.9014 11.1161 19.7917 10.8287 19.7917H8.6614V17.6323C9.614 17.4959 10.5304 17.1847 11.3608 16.7156C12.8706 17.5645 14.6395 17.8846 16.3671 17.6216C18.0946 17.3587 19.6741 16.5288 20.8371 15.2731C22.0002 14.0174 22.6751 12.4134 22.747 10.7335C22.819 9.05367 22.2836 7.40169 21.2319 6.05833L23.8327 3.55833V6.25C23.8327 6.52627 23.9468 6.79122 24.1501 6.98657C24.3533 7.18192 24.6289 7.29167 24.9163 7.29167C25.2037 7.29167 25.4794 7.18192 25.6826 6.98657C25.8858 6.79122 26 6.52627 26 6.25V2.08333C26 1.5308 25.7717 1.0009 25.3652 0.610194C24.9588 0.219493 24.4075 0 23.8327 0V0ZM2.15942 10.4167C2.15429 9.57068 2.36487 8.73636 2.77275 7.98669C3.18063 7.23702 3.77339 6.59484 4.49917 6.1163C5.22496 5.63777 6.06167 5.33746 6.93612 5.24164C7.81056 5.14582 8.69612 5.25742 9.51533 5.56667C8.26797 6.89752 7.57767 8.62535 7.57767 10.4167C7.57767 12.208 8.26797 13.9358 9.51533 15.2667C8.69612 15.5759 7.81056 15.6875 6.93612 15.5917C6.06167 15.4959 5.22496 15.1956 4.49917 14.717C3.77339 14.2385 3.18063 13.5963 2.77275 12.8466C2.36487 12.097 2.15429 11.2627 2.15942 10.4167ZM15.1634 15.625C14.0917 15.625 13.0442 15.3195 12.1531 14.7472C11.2621 14.1749 10.5676 13.3615 10.1575 12.4098C9.74741 11.4581 9.64011 10.4109 9.84917 9.40057C10.0582 8.39025 10.5743 7.46222 11.332 6.73382C12.0898 6.00542 13.0553 5.50937 14.1063 5.30841C15.1574 5.10745 16.2468 5.21059 17.2369 5.60479C18.2269 5.999 19.0732 6.66657 19.6685 7.52307C20.2639 8.37958 20.5817 9.38656 20.5817 10.4167C20.58 11.7975 20.0086 13.1213 18.9928 14.0977C17.977 15.0741 16.5999 15.6233 15.1634 15.625Z" fill="#FF7F00"/>
</svg>
