<svg width="23" height="25" viewBox="0 0 23 25" fill="none" xmlns="http://www.w3.org/2000/svg">
<path d="M11.7996 24.9987L11.0232 24.3763C9.9529 23.5381 0.607422 15.9894 0.607422 10.4677C0.607422 4.68657 5.61833 0 11.7996 0C17.9808 0 22.9917 4.68657 22.9917 10.4677C22.9917 15.9895 13.6463 23.5381 12.5804 24.3804L11.7996 24.9987ZM11.7996 2.26343C6.95719 2.26856 3.03303 5.93872 3.02754 10.4677C3.02754 13.9365 8.77724 19.4779 11.7996 22.0142C14.822 19.4769 20.5716 13.9323 20.5716 10.4677C20.5661 5.93872 16.642 2.2686 11.7996 2.26343Z" fill="#FF7F00"/>
<path d="M11.7998 14.617C9.34956 14.617 7.36328 12.7593 7.36328 10.4677C7.36328 8.17607 9.34956 6.31836 11.7998 6.31836C14.2499 6.31836 16.2362 8.17607 16.2362 10.4677C16.2362 12.7593 14.25 14.617 11.7998 14.617ZM11.7998 8.39297C10.5747 8.39297 9.58152 9.32183 9.58152 10.4676C9.58152 11.6134 10.5747 12.5423 11.7998 12.5423C13.0249 12.5423 14.018 11.6134 14.018 10.4676C14.018 9.32183 13.0249 8.39297 11.7998 8.39297Z" fill="#FF7F00"/>
</svg>
