<svg width="26" height="25" viewBox="0 0 26 25" fill="none" xmlns="http://www.w3.org/2000/svg">
<path d="M25.046 0.918152C24.6575 0.54015 24.1743 0.26486 23.6428 0.118878C23.1114 -0.0271036 22.5498 -0.0388418 22.0123 0.0847975L4.67664 3.5953C3.6783 3.72694 2.73801 4.12394 1.96166 4.74159C1.18532 5.35925 0.603754 6.17303 0.282462 7.09129C-0.0388302 8.00955 -0.0870878 8.99581 0.143124 9.93902C0.373335 10.8822 0.872872 11.7449 1.58548 12.4299L3.44689 14.2185C3.54764 14.3153 3.62753 14.4303 3.68201 14.5568C3.73648 14.6834 3.76446 14.819 3.76435 14.956V18.2561C3.76674 18.7201 3.87784 19.1776 4.08939 19.5947L4.08072 19.6019L4.10889 19.629C4.42637 20.2427 4.94489 20.7391 5.58459 21.0416L5.61276 21.0687L5.62035 21.0603C6.05413 21.2637 6.53 21.3705 7.01261 21.3728H10.4451C10.7322 21.3726 11.0078 21.482 11.2111 21.677L13.0714 23.4656C13.5704 23.9506 14.1643 24.3359 14.8188 24.5993C15.4734 24.8626 16.1757 24.9988 16.8853 25C17.4766 24.9993 18.0638 24.9064 18.6242 24.725C19.5706 24.4262 20.4113 23.8792 21.0515 23.1455C21.6917 22.4118 22.1059 21.5208 22.2474 20.5728L25.9041 3.86927C26.0394 3.34805 26.0314 2.80197 25.881 2.28461C25.7305 1.76724 25.4428 1.29636 25.046 0.918152ZM4.98109 12.7476L3.1186 10.959C2.6849 10.5521 2.38094 10.0347 2.24237 9.46749C2.10381 8.9003 2.13641 8.30687 2.33633 7.75686C2.53016 7.1926 2.88847 6.69374 3.36866 6.3196C3.84885 5.94546 4.4307 5.7118 5.04502 5.64639L22.2084 2.17235L5.92914 17.8259V14.956C5.93078 14.5459 5.84783 14.1396 5.68511 13.7605C5.52238 13.3815 5.28309 13.0372 4.98109 12.7476ZM20.1183 20.2165C20.0352 20.7919 19.7868 21.3336 19.4012 21.7808C19.0156 22.228 18.5079 22.563 17.9353 22.7482C17.3626 22.9334 16.7476 22.9615 16.1593 22.8294C15.5709 22.6972 15.0325 22.41 14.6045 21.9999L12.741 20.2082C12.4401 19.9174 12.0824 19.6869 11.6883 19.5299C11.2942 19.3729 10.8716 19.2926 10.4451 19.2936H7.46009L23.7415 3.6453L20.1183 20.2165Z" fill="#FF7F00"/>
</svg>
