<svg width="24" height="24" viewBox="0 0 24 24" fill="none" xmlns="http://www.w3.org/2000/svg">
<path d="M22.916 0.690364C22.5769 0.408695 22.1797 0.205446 21.7529 0.0951526C21.3261 -0.0151405 20.8801 -0.0297518 20.447 0.0523637L8.44801 2.29937C7.7597 2.42821 7.13815 2.79379 6.69105 3.33275C6.24396 3.87172 5.99949 4.5501 6.00001 5.25037V16.5554C5.39466 16.1955 4.70426 16.0035 4 15.9994C3.20888 15.9994 2.43552 16.234 1.77772 16.6735C1.11992 17.113 0.607235 17.7377 0.304484 18.4686C0.00173313 19.1996 -0.0774802 20.0038 0.0768607 20.7797C0.231202 21.5557 0.612165 22.2684 1.17158 22.8278C1.73099 23.3872 2.44372 23.7682 3.21964 23.9225C3.99557 24.0769 4.79983 23.9977 5.53074 23.6949C6.26164 23.3922 6.88636 22.8795 7.32588 22.2217C7.76541 21.5639 8.00001 20.7905 8.00001 19.9994V9.41937L22 6.79937V13.5604C21.3952 13.1987 20.7047 13.005 20 12.9994C19.2089 12.9994 18.4355 13.234 17.7777 13.6735C17.1199 14.113 16.6072 14.7377 16.3045 15.4686C16.0017 16.1995 15.9225 17.0038 16.0769 17.7797C16.2312 18.5557 16.6122 19.2684 17.1716 19.8278C17.731 20.3872 18.4437 20.7682 19.2197 20.9225C19.9956 21.0769 20.7998 20.9977 21.5307 20.6949C22.2617 20.3921 22.8864 19.8795 23.3259 19.2217C23.7654 18.5639 24 17.7905 24 16.9994V2.99937C24.0001 2.55849 23.903 2.12301 23.7156 1.72392C23.5283 1.32483 23.2553 0.97194 22.916 0.690364ZM4 21.9994C3.60444 21.9994 3.21776 21.8821 2.88886 21.6623C2.55996 21.4426 2.30362 21.1302 2.15224 20.7647C2.00087 20.3993 1.96126 19.9972 2.03843 19.6092C2.1156 19.2212 2.30608 18.8649 2.58579 18.5852C2.86549 18.3055 3.22186 18.115 3.60982 18.0378C3.99779 17.9606 4.39992 18.0002 4.76537 18.1516C5.13082 18.303 5.44318 18.5593 5.66294 18.8882C5.88271 19.2171 6.00001 19.6038 6.00001 19.9994C6.00001 20.5298 5.78929 21.0385 5.41422 21.4136C5.03915 21.7887 4.53044 21.9994 4 21.9994ZM8.00001 7.38537V5.25037C7.99995 5.0172 8.08136 4.79135 8.23018 4.61185C8.379 4.43235 8.58587 4.3105 8.81501 4.26737L20.815 2.01737C20.9594 1.99018 21.108 1.99515 21.2503 2.03193C21.3925 2.0687 21.525 2.13637 21.6381 2.23013C21.7512 2.32388 21.8423 2.44142 21.9049 2.57437C21.9674 2.70733 21.9999 2.85243 22 2.99937V4.75937L8.00001 7.38537ZM20 18.9994C19.6045 18.9994 19.2178 18.8821 18.8889 18.6623C18.56 18.4426 18.3036 18.1302 18.1523 17.7647C18.0009 17.3993 17.9613 16.9972 18.0384 16.6092C18.1156 16.2212 18.3061 15.8649 18.5858 15.5852C18.8655 15.3055 19.2219 15.115 19.6098 15.0378C19.9978 14.9606 20.3999 15.0002 20.7654 15.1516C21.1308 15.303 21.4432 15.5593 21.663 15.8882C21.8827 16.2171 22 16.6038 22 16.9994C22 17.5298 21.7893 18.0385 21.4142 18.4136C21.0392 18.7887 20.5304 18.9994 20 18.9994Z" fill="#30B354"/>
</svg>
