<svg width="28" height="35" viewBox="0 0 28 35" fill="none" xmlns="http://www.w3.org/2000/svg">
<path d="M14.3276 18.1034C16.1179 18.1034 17.8679 17.5726 19.3565 16.578C20.845 15.5833 22.0052 14.1697 22.6903 12.5157C23.3754 10.8617 23.5547 9.04169 23.2054 7.28582C22.8561 5.52996 21.994 3.9171 20.7281 2.65119C19.4622 1.38529 17.8494 0.523193 16.0935 0.17393C14.3376 -0.175332 12.5176 0.00392198 10.8637 0.689025C9.20967 1.37413 7.79599 2.53431 6.80137 4.02286C5.80675 5.51141 5.27588 7.26147 5.27588 9.05173C5.27828 11.4517 6.23271 13.7526 7.92971 15.4496C9.62672 17.1466 11.9277 18.1011 14.3276 18.1034ZM14.3276 3.01724C15.5211 3.01724 16.6878 3.37116 17.6802 4.03424C18.6725 4.69732 19.446 5.63977 19.9027 6.74243C20.3595 7.84509 20.479 9.05842 20.2461 10.229C20.0133 11.3996 19.4386 12.4748 18.5946 13.3187C17.7507 14.1627 16.6754 14.7374 15.5049 14.9703C14.3343 15.2031 13.121 15.0836 12.0183 14.6269C10.9156 14.1701 9.97319 13.3967 9.31011 12.4043C8.64704 11.4119 8.29312 10.2452 8.29312 9.05173C8.29312 7.45128 8.92889 5.91639 10.0606 4.7847C11.1923 3.65302 12.7272 3.01724 14.3276 3.01724Z" fill="#4F4F4F" fill-opacity="0.6"/>
<path d="M14.3276 19.9141C10.7278 19.9181 7.27662 21.3498 4.73119 23.8953C2.18577 26.4407 0.753993 29.8919 0.75 33.4916C0.75 33.8918 0.908943 34.2755 1.19186 34.5584C1.47479 34.8413 1.85851 35.0003 2.25862 35.0003C2.65873 35.0003 3.04245 34.8413 3.32538 34.5584C3.6083 34.2755 3.76724 33.8918 3.76724 33.4916C3.76724 30.6909 4.87984 28.0048 6.86029 26.0244C8.84074 24.0439 11.5268 22.9313 14.3276 22.9313C17.1284 22.9313 19.8144 24.0439 21.7949 26.0244C23.7753 28.0048 24.8879 30.6909 24.8879 33.4916C24.8879 33.8918 25.0469 34.2755 25.3298 34.5584C25.6127 34.8413 25.9964 35.0003 26.3965 35.0003C26.7967 35.0003 27.1804 34.8413 27.4633 34.5584C27.7462 34.2755 27.9052 33.8918 27.9052 33.4916C27.9012 29.8919 26.4694 26.4407 23.924 23.8953C21.3785 21.3498 17.9274 19.9181 14.3276 19.9141Z" fill="#4F4F4F" fill-opacity="0.6"/>
</svg>
