<svg width="20" height="25" viewBox="0 0 20 25" fill="none" xmlns="http://www.w3.org/2000/svg">
<path d="M15.5516 25H4.44796C3.80542 24.9994 3.17058 24.8688 2.58679 24.6171C2.00299 24.3655 1.48399 23.9986 1.06522 23.5417C0.653265 23.0942 0.3491 22.5687 0.173486 22.001C-0.00212822 21.4333 -0.0450585 20.8368 0.0476252 20.2521C0.643626 17.2056 2.3768 14.4575 4.93676 12.5C2.37677 10.5418 0.643953 7.79296 0.0487363 4.74583C-0.0437662 4.16155 -0.000848157 3.56544 0.174566 2.99812C0.34998 2.4308 0.653766 1.90561 1.06522 1.45833C1.48399 1.00138 2.00299 0.634542 2.58679 0.382862C3.17058 0.131183 3.80542 0.000589884 4.44796 0L15.5516 0C16.1939 0.000533483 16.8286 0.131106 17.4123 0.382795C17.9959 0.634483 18.5147 1.00135 18.9332 1.45833C19.3452 1.90515 19.6496 2.43005 19.8256 2.99721C20.0016 3.56437 20.045 4.16045 19.953 4.74479C19.3512 7.79265 17.6146 10.5411 15.0528 12.5C17.6131 14.4606 19.3478 17.2101 19.9474 20.2583C20.0396 20.8428 19.9962 21.4391 19.8202 22.0064C19.6442 22.5738 19.3397 23.0989 18.9276 23.5458C18.5093 24.0014 17.9912 24.3671 17.4086 24.618C16.8261 24.8689 16.1927 24.9992 15.5516 25ZM15.5516 2.08333H4.44796C4.12571 2.08308 3.8072 2.1481 3.51422 2.27395C3.22125 2.3998 2.96073 2.5835 2.75048 2.8125C2.54507 3.03164 2.39336 3.29032 2.30603 3.57035C2.2187 3.85038 2.19787 4.14495 2.24501 4.43333C2.66161 7.0375 4.38019 9.475 7.35522 11.6802C7.48658 11.7777 7.59271 11.9019 7.66567 12.0433C7.73863 12.1847 7.77652 12.3398 7.77652 12.4969C7.77652 12.654 7.73863 12.809 7.66567 12.9505C7.59271 13.0919 7.48658 13.216 7.35522 13.3135C4.38019 15.5208 2.66494 17.9604 2.24501 20.5635C2.19737 20.8524 2.21794 21.1476 2.30528 21.4282C2.39262 21.7088 2.5446 21.968 2.75048 22.1875C2.96073 22.4165 3.22125 22.6002 3.51422 22.726C3.8072 22.8519 4.12571 22.9169 4.44796 22.9167H15.5516C15.8738 22.9169 16.1923 22.8519 16.4853 22.726C16.7783 22.6002 17.0388 22.4165 17.249 22.1875C17.4543 21.9687 17.6061 21.7104 17.6936 21.4307C17.7811 21.1511 17.8023 20.8569 17.7556 20.5688C17.3412 17.9781 15.6227 15.5385 12.6454 13.3167C12.5148 13.2191 12.4094 13.0952 12.337 12.9542C12.2645 12.8131 12.2269 12.6586 12.2269 12.5021C12.2269 12.3455 12.2645 12.191 12.337 12.05C12.4094 11.909 12.5148 11.7851 12.6454 11.6875C15.6238 9.46562 17.3423 7.02604 17.7556 4.43437C17.8021 4.14536 17.7803 3.8503 17.6918 3.57005C17.6033 3.2898 17.4503 3.03119 17.2435 2.8125C17.0338 2.58417 16.7742 2.40086 16.4823 2.27503C16.1903 2.14921 15.8729 2.08383 15.5516 2.08333Z" fill="#FF7F00"/>
</svg>
