<svg width="24" height="24" viewBox="0 0 24 24" fill="none" xmlns="http://www.w3.org/2000/svg">
<path d="M20.488 3.51076C18.8088 1.83365 16.6699 0.691876 14.3417 0.229762C12.0134 -0.232351 9.60042 0.00594305 7.40764 0.914524C5.21486 1.8231 3.34076 3.36118 2.02225 5.33433C0.703736 7.30747 0 9.6271 0 12C0 14.3729 0.703736 16.6925 2.02225 18.6657C3.34076 20.6388 5.21486 22.1769 7.40764 23.0855C9.60042 23.9941 12.0134 24.2323 14.3417 23.7702C16.6699 23.3081 18.8088 22.1663 20.488 20.4892C22.737 18.236 24 15.183 24 12C24 8.817 22.737 5.76398 20.488 3.51076ZM21.9382 10.9315C20.7381 11.077 19.5205 10.9477 18.3777 10.5534C17.2349 10.159 16.1968 9.51 15.342 8.65537C14.4872 7.80073 13.838 6.76291 13.4437 5.62044C13.0494 4.47797 12.9202 3.26079 13.0659 2.06103C15.3375 2.29978 17.4582 3.31109 19.0732 4.92577C20.6883 6.54045 21.6997 8.66058 21.9382 10.9315ZM2.05378 13.0685C3.25394 12.923 4.4715 13.0523 5.6143 13.4466C6.7571 13.8409 7.7952 14.49 8.65002 15.3446C9.50484 16.1993 10.154 17.2371 10.5483 18.3796C10.9426 19.522 11.0718 20.7392 10.9261 21.939C8.65451 21.7002 6.53381 20.6889 4.91878 19.0742C3.30375 17.4595 2.29235 15.3394 2.05378 13.0685ZM19.0729 19.0715C17.4286 20.7189 15.2588 21.7381 12.9408 21.952C13.0844 20.4845 12.9008 19.0035 12.4033 17.6154C11.9058 16.2274 11.1066 14.9669 10.0634 13.9245C9.02017 12.8822 7.75879 12.084 6.37001 11.5874C4.98124 11.0908 3.49962 10.9081 2.03176 11.0525C2.24945 8.73566 3.26987 6.56758 4.91672 4.92292C6.56357 3.27826 8.73338 2.26033 11.0512 2.04503C10.9166 3.43227 11.0739 4.83232 11.5128 6.15519C11.9518 7.47806 12.6628 8.69449 13.6001 9.72628C14.5374 10.7581 15.6803 11.5824 16.9553 12.1463C18.2303 12.7102 19.6092 13.0011 21.0035 13.0005C21.3207 13.0005 21.639 12.9845 21.9572 12.9545C21.7399 15.2685 20.7194 17.4336 19.0729 19.0745V19.0715Z" fill="#1B61A0"/>
</svg>
