<svg width="27" height="25" viewBox="0 0 27 25" fill="none" xmlns="http://www.w3.org/2000/svg">
<path d="M25.875 7.29173H20.4649L21.3649 1.18244C21.3848 1.04688 21.3757 0.909005 21.3381 0.776696C21.3005 0.644387 21.2351 0.520231 21.1457 0.411317C21.0563 0.302403 20.9446 0.210864 20.817 0.141926C20.6893 0.0729879 20.5483 0.0280012 20.4019 0.00953428C20.2555 -0.00893262 20.1066 -0.00051803 19.9637 0.0342976C19.8208 0.0691133 19.6867 0.129648 19.5691 0.212446C19.4514 0.295244 19.3526 0.398683 19.2781 0.516858C19.2037 0.635033 19.1551 0.765629 19.1351 0.90119L18.1946 7.29173H10.3399L11.2399 1.18244C11.2598 1.04688 11.2507 0.909005 11.2131 0.776696C11.1755 0.644387 11.1102 0.520231 11.0207 0.411317C10.9313 0.302403 10.8196 0.210864 10.692 0.141926C10.5643 0.0729879 10.4233 0.0280012 10.2769 0.0095343C10.1305 -0.0089326 9.98157 -0.000518003 9.83867 0.0342977C9.69578 0.0691133 9.56168 0.129648 9.44406 0.212446C9.32643 0.295244 9.22756 0.398683 9.15311 0.516858C9.07866 0.635033 9.03007 0.765629 9.01013 0.90119L8.06962 7.29173H2.25C1.95163 7.29173 1.66548 7.40148 1.4545 7.59683C1.24353 7.79217 1.125 8.05712 1.125 8.33339C1.125 8.60965 1.24353 8.8746 1.4545 9.06995C1.66548 9.26529 1.95163 9.37504 2.25 9.37504H7.7625L6.84225 15.625H1.125C0.826631 15.625 0.540483 15.7347 0.329505 15.9301C0.118526 16.1254 0 16.3903 0 16.6666C0 16.9429 0.118526 17.2078 0.329505 17.4032C0.540483 17.5985 0.826631 17.7083 1.125 17.7083H6.53512L5.63512 23.8176C5.59484 24.0913 5.67368 24.3687 5.85427 24.5887C6.03487 24.8086 6.30244 24.9532 6.59812 24.9905C6.89381 25.0278 7.19338 24.9548 7.43094 24.7875C7.66851 24.6203 7.8246 24.3726 7.86488 24.0988L8.80538 17.7083H16.6601L15.7601 23.8176C15.7198 24.0913 15.7987 24.3687 15.9793 24.5887C16.1599 24.8086 16.4274 24.9532 16.7231 24.9905C17.0188 25.0278 17.3184 24.9548 17.5559 24.7875C17.7935 24.6203 17.9496 24.3726 17.9899 24.0988L18.9304 17.7083H24.75C25.0484 17.7083 25.3345 17.5985 25.5455 17.4032C25.7565 17.2078 25.875 16.9429 25.875 16.6666C25.875 16.3903 25.7565 16.1254 25.5455 15.9301C25.3345 15.7347 25.0484 15.625 24.75 15.625H19.2375L20.1577 9.37504H25.875C26.1734 9.37504 26.4595 9.26529 26.6705 9.06995C26.8815 8.8746 27 8.60965 27 8.33339C27 8.05712 26.8815 7.79217 26.6705 7.59683C26.4595 7.40148 26.1734 7.29173 25.875 7.29173ZM16.9672 15.625H9.1125L10.0328 9.37504H17.8875L16.9672 15.625Z" fill="#FF7F00"/>
</svg>
