<svg width="35" height="35" viewBox="0 0 35 35" fill="none" xmlns="http://www.w3.org/2000/svg">
<path d="M17.5 0C14.0388 0 10.6554 1.02636 7.77753 2.94928C4.89967 4.8722 2.65665 7.60533 1.33212 10.803C0.0075825 14.0007 -0.338976 17.5194 0.336265 20.9141C1.01151 24.3087 2.67822 27.4269 5.12564 29.8744C7.57306 32.3218 10.6913 33.9885 14.0859 34.6637C17.4806 35.339 20.9993 34.9924 24.197 33.6679C27.3947 32.3433 30.1278 30.1003 32.0507 27.2225C33.9736 24.3446 35 20.9612 35 17.5C34.995 12.8602 33.1496 8.41197 29.8688 5.13117C26.588 1.85037 22.1398 0.00501824 17.5 0V0ZM32.0833 17.5C32.0851 20.3579 31.2418 23.1525 29.6596 25.5325L27.9213 23.7927C27.7849 23.656 27.7084 23.4709 27.7083 23.2779V21.875C27.7083 20.7147 27.2474 19.6019 26.4269 18.7814C25.6065 17.9609 24.4937 17.5 23.3333 17.5H18.9583C18.5716 17.5 18.2006 17.3463 17.9271 17.0729C17.6537 16.7994 17.5 16.4284 17.5 16.0417V15.3125C17.5 15.1191 17.5768 14.9336 17.7136 14.7969C17.8503 14.6601 18.0358 14.5833 18.2292 14.5833C19.1961 14.5833 20.1234 14.1992 20.8072 13.5155C21.4909 12.8318 21.875 11.9044 21.875 10.9375V9.47916C21.875 9.28578 21.9518 9.10031 22.0886 8.96356C22.2253 8.82682 22.4108 8.75 22.6042 8.75H24.6152C25.5812 8.74725 26.5071 8.36367 27.1921 7.6825L27.7419 7.13271C29.1174 8.48615 30.2096 10.0999 30.955 11.8798C31.7004 13.6598 32.0839 15.5703 32.0833 17.5ZM2.98813 18.9044L7.59355 23.5098C7.99882 23.9177 8.48106 24.241 9.01228 24.4611C9.54351 24.6811 10.1131 24.7935 10.6881 24.7917H14.5833C14.9701 24.7917 15.341 24.9453 15.6145 25.2188C15.888 25.4923 16.0417 25.8632 16.0417 26.25V32.0089C12.6878 31.6666 9.55558 30.1746 7.17636 27.7861C4.79714 25.3976 3.31739 22.2596 2.98813 18.9044ZM18.9583 32.0089V26.25C18.9583 25.0897 18.4974 23.9769 17.6769 23.1564C16.8565 22.3359 15.7437 21.875 14.5833 21.875H10.6881C10.4964 21.8751 10.3065 21.8375 10.1293 21.7642C9.95216 21.6908 9.79119 21.5833 9.65563 21.4477L3.15438 14.9465C3.57172 12.574 4.5715 10.3423 6.06401 8.45159C7.55652 6.56085 9.49508 5.0702 11.7057 4.11339C13.9164 3.15659 16.33 2.76356 18.7301 2.96958C21.1301 3.17559 23.4414 3.9742 25.4567 5.29375L25.13 5.62041C24.9927 5.75579 24.808 5.83219 24.6152 5.83333H22.6042C21.6372 5.83333 20.7099 6.21744 20.0262 6.90117C19.3425 7.5849 18.9583 8.51223 18.9583 9.47916V10.9375C18.9583 11.1309 18.8815 11.3163 18.7448 11.4531C18.608 11.5898 18.4226 11.6667 18.2292 11.6667C17.2622 11.6667 16.3349 12.0508 15.6512 12.7345C14.9675 13.4182 14.5833 14.3456 14.5833 15.3125V16.0417C14.5833 17.202 15.0443 18.3148 15.8647 19.1353C16.6852 19.9557 17.798 20.4167 18.9583 20.4167H23.3333C23.7201 20.4167 24.091 20.5703 24.3645 20.8438C24.638 21.1173 24.7917 21.4882 24.7917 21.875V23.2779C24.7944 24.2439 25.178 25.1698 25.8592 25.8548L27.809 27.8046C25.434 30.1878 22.3061 31.6736 18.9583 32.0089Z" fill="#4F4F4F" fill-opacity="0.6"/>
</svg>
