<svg width="169" height="55" viewBox="0 0 169 55" xmlns="http://www.w3.org/2000/svg" class="fill-primary">
    <path
        d="M26.6112 26.936H20.6272V54H7.23122V26.936H3.08322V15.852H7.23122V15.512C7.23122 10.616 8.65922 6.876 11.5152 4.292C14.4166 1.66266 18.5646 0.347998 23.9592 0.347998C25.0472 0.347998 25.8859 0.370664 26.4752 0.415997V11.772C26.1126 11.7267 25.6139 11.704 24.9792 11.704C23.5286 11.704 22.4632 12.044 21.7832 12.724C21.1032 13.3587 20.7179 14.4013 20.6272 15.852H26.6112V26.936ZM70.4064 15.852V54H57.0104V48.56C55.8771 50.2827 54.3131 51.688 52.3184 52.776C50.3237 53.8187 48.0344 54.34 45.4504 54.34C41.0077 54.34 37.4944 52.8893 34.9104 49.988C32.3717 47.0413 31.1024 43.052 31.1024 38.02V15.852H44.3624V36.32C44.3624 38.496 44.9291 40.2187 46.0624 41.488C47.2411 42.712 48.7824 43.324 50.6864 43.324C52.6357 43.324 54.1771 42.712 55.3104 41.488C56.4437 40.2187 57.0104 38.496 57.0104 36.32V15.852H70.4064ZM102.948 15.512C107.345 15.512 110.836 16.9853 113.42 19.932C116.004 22.8333 117.296 26.7773 117.296 31.764V54H103.968V33.532C103.968 31.356 103.401 29.656 102.268 28.432C101.134 27.1627 99.6156 26.528 97.7116 26.528C95.7169 26.528 94.1529 27.1627 93.0196 28.432C91.8863 29.656 91.3196 31.356 91.3196 33.532V54H77.9916V15.852H91.3196V21.292C92.4983 19.5693 94.0849 18.1867 96.0796 17.144C98.0743 16.056 100.364 15.512 102.948 15.512Z"
        fill="#FF7F00" />
    <circle cx="143.5" cy="34.5" r="15" fill="#F5F7FB" stroke="#FF7F00" stroke-width="11" />
    <path d="M168.51 48.645L149.138 54.1486V43.1414L168.51 48.645Z" fill="#FF7F00" />
</svg>